<?xml version="1.0" encoding="utf-8"?>
<!-- Generator: Adobe Illustrator 23.0.1, SVG Export Plug-In . SVG Version: 6.00 Build 0)  -->
<svg version="1.1" id="Layer_1" xmlns="http://www.w3.org/2000/svg" xmlns:xlink="http://www.w3.org/1999/xlink" x="0px" y="0px"
	 viewBox="0 0 175.1 77.1" style="enable-background:new 0 0 175.1 77.1;" xml:space="preserve">
<style type="text/css">
	.st0{fill:#4D44A5;}
	.st1{fill:#4FC3F7;}
</style>
<g>
	<path class="st0" d="M0.3,21.1H0.2v-9.2h0.2c0,2.7,1.4,5.2,3.2,7c1.5,1.4,3.3,2.2,5.1,2.2c2.8,0,3.5-2.3,3.5-3.7
		c0-2.8-2.8-3.6-4.6-4L6,13c-2.8-0.8-6-2.3-6-6.1c0-1,0.3-2.1,0.8-3C1.8,2,5.1,0.1,8,0.1c1.3,0,2.1,0.2,2.7,0.5
		c0.8,0.3,1.4,0.6,2.5,0.6c0.8,0,1.6-0.1,1.7-1.2h0.2v7.6h-0.2c0-1.7-0.5-3.2-2.2-5.2c-1.3-1.6-3-2.2-4.5-2.2
		c-1.1,0-1.9,0.3-2.7,1.4C5.2,2.1,5.1,2.7,5.1,3.4c0,3.2,3.2,3.7,4.2,4l1.3,0.3c1.6,0.4,6.5,1.3,6.5,6.4c0,1.7-0.6,3.5-2.1,4.9
		c-1.8,1.8-3.4,2.4-5.8,2.4c-3.1,0-5.9-1.4-7.3-1.4C1.2,19.9,0.6,20.2,0.3,21.1"/>
	<path class="st0" d="M32.3,19.5c0,0.4,0,1.2,0.4,1.2c0.4,0,1.3-0.8,1.4-3.6h0.2c0,0.6-0.2,3.2-1.4,3.8c-0.6,0.3-1.4,0.5-2.2,0.5
		c-0.5,0-1-0.1-1.4-0.2c-1.5-0.6-1.9-1.2-2.4-2.8c-0.6,1.8-1.4,2.5-2.1,2.8c-0.4,0.2-0.9,0.2-1.5,0.2c-2.3,0-4.6-0.6-4.6-3.5
		c0-0.4,0.1-0.9,0.2-1.2c0.6-1.9,1.8-2.1,3.6-2.4l0.6-0.1c3.5-0.6,3.7-2.4,3.7-4c0-2.6-0.9-2.8-1.9-2.8c-0.6,0-2.2,0.1-2.7,1.4
		c0.2-0.1,0.4-0.1,0.6-0.1c1,0,2.2,0.7,2.2,2.2c0,1.6-1.4,2.6-2.7,2.6c-1.3,0-2.6-1-2.6-2.7c0-2.2,2.8-3.7,6.1-3.7
		c1.6,0,3.4,0.3,4.5,1.2c1.8,1.2,1.8,2.8,1.8,4.3V19.5z M24.1,16c-0.1,0.5-0.1,1-0.1,1.4c0,0.6,0.1,1.2,0.1,1.8
		c0,0.5,0.1,1.5,0.7,1.5c0.2,0,0.4,0,0.5-0.2c1.5-1,1.6-3.4,1.6-5.4v-3.4c-0.1,0.6-0.5,1.1-0.8,1.3C24.4,14.3,24.3,14.5,24.1,16"/>
	<path class="st0" d="M42.4,18.4c0,1.7,0.1,2.6,1.2,2.6v0.2h-8.8V21c2.1,0,2.3-0.6,2.3-2.6V9.9c0-2-0.2-2.5-2.3-2.5V7.2h7.6v2.4
		c0.9-2.2,2.7-2.5,4-2.5c0.9,0,2.7,0.2,3.5,1.3c0.1,0.2,0.4,0.5,0.6,0.9C51.1,8.1,52.3,7,54.5,7c3.3,0,4.6,1.8,4.6,4.9v6.5
		c0,2,0.2,2.6,2.3,2.6v0.2h-8.8V21c1.1,0,1.2-0.9,1.2-2.6v-7.1C53.9,9,53.6,8,52.4,8c-0.2,0-0.3,0-0.5,0.1c-0.7,0.3-1,0.8-1,2.2v8.1
		c0,1.7,0.1,2.6,1.2,2.6v0.2h-7.7V21c1.1,0,1.2-0.9,1.2-2.6v-6.8c0-2.8-0.3-3.4-1.3-3.4c-0.7,0-1.3,0.8-1.5,1.5
		c-0.2,0.6-0.2,1.4-0.2,2.4C42.4,12.2,42.4,18.4,42.4,18.4z"/>
	<path class="st0" d="M66.9,0.5V0.3h18v8h-0.2c0-2.2-0.9-4.8-3.4-6.6c-1.5-1-2.8-1.3-5.2-1.3V10c2.5,0,3.9-0.8,4.7-3.1
		c0.1-0.2,0.3-1.2,0.3-2.1h0.2v10.5h-0.2c0-0.9-0.2-1.8-0.3-2.1c-0.9-2.3-2.2-3.1-4.7-3.1v7.7c0,2.3,0.2,3.1,3,3.1h0.2v0.2H66.9V21
		h0.2c2.8,0,3-0.8,3-3.1V3.6c0-2.3-0.2-3.1-3-3.1L66.9,0.5L66.9,0.5z"/>
	<path class="st0" d="M96.4,21.2h-9.9V21c2.1,0,2.3-0.6,2.3-2.6V9.9c0-2-0.2-2.5-2.3-2.5V7.2h7.6v11.2c0,2,0.2,2.6,2.2,2.6
		L96.4,21.2L96.4,21.2z M91.2,1c1.6,0,2.9,1.2,2.9,2.6c0,1.4-1.3,2.6-2.9,2.6S88.3,5,88.3,3.6C88.3,2.2,89.7,1,91.2,1"/>
	<path class="st0" d="M96.9,7.2h7.6v2.4c0.7-1.7,2.2-2.5,4.2-2.5c1.1,0,2.1,0.3,2.8,0.9c1.3,1,1.5,2.3,1.5,4v6.5
		c0,2,0.2,2.6,2.3,2.6v0.2h-8.8V21c1.1,0,1.2-0.9,1.2-2.6v-7.1c0-2.7-0.5-3.2-1.3-3.2c-0.2,0-1,0.1-1.4,0.9c-0.3,0.6-0.5,1-0.5,3.2
		v6.2c0,1.7,0.1,2.6,1.2,2.6v0.2h-8.8V21c2.1,0,2.3-0.6,2.3-2.6V9.9c0-2-0.2-2.6-2.3-2.6C96.9,7.3,96.9,7.2,96.9,7.2z"/>
	<path class="st0" d="M116.5,21.2h-0.2v-6.6h0.2c0.6,3.1,3.7,6.6,6.2,6.6c1.3,0,2.1-1,2.1-2c0-1.6-1.5-2-3-2.5l-0.7-0.2
		c-2-0.7-4.4-1.4-4.4-4.6c0-3.5,3.2-4.8,5.5-4.8c1.8,0,3,0.8,4,0.8c0.4,0,0.7-0.4,0.8-0.7h0.2V12H127c-0.2-2-2.5-4.9-4.7-4.9
		c-1.5,0-1.9,1.3-1.9,2c0,1,0.7,1.8,3,2.4l0.8,0.2c1.8,0.6,4.3,1.1,4.3,4.5c0,3.1-2.6,5-5.5,5c-2.2,0-4.4-1.1-5.2-1.1
		C117.3,20.2,117,20.5,116.5,21.2"/>
	<path class="st0" d="M131.5,17V7.3h-1.4V7.2c1.8-0.1,3.1-0.7,4.3-1.5c0.9-0.6,2.1-1.6,2.3-3.6h0.2v5.1h2.4v0.2h-2.4v10.4
		c0,2.3,0.1,2.5,0.6,2.5c0.2,0,0.7-0.1,1.1-1.1c0.2-0.6,0.5-1.9,0.5-3.2h0.2c0,0.8-0.1,1.7-0.3,2.5c-0.2,1.1-0.6,2.8-3.7,2.8
		C132.1,21.3,131.5,20,131.5,17"/>
	<path class="st0" d="M148.2,7c4,0,7.3,3.2,7.3,7.2c0,4-3.4,7.2-7.3,7.2s-7.3-3.2-7.3-7.2C140.9,10.2,144.2,7,148.2,7 M149.9,10.2
		c0-2.2-0.7-3.1-1.8-3.1c-1.1,0-1.7,0.9-1.7,3.1v7.8c0,2.2,0.7,3.1,1.7,3.1c1.1,0,1.8-0.9,1.8-3.1V10.2z"/>
	<path class="st0" d="M156.6,7.2h7.6v2.4c0.7-1.7,2.2-2.5,4.2-2.5c1.1,0,2,0.3,2.8,0.9c1.3,1,1.5,2.3,1.5,4v6.5c0,2,0.2,2.6,2.3,2.6
		v0.2h-8.8V21c1.1,0,1.2-0.9,1.2-2.6v-7.1c0-2.7-0.5-3.2-1.3-3.2c-0.2,0-1,0.1-1.4,0.9c-0.3,0.6-0.4,1-0.4,3.2v6.2
		c0,1.7,0.1,2.6,1.2,2.6v0.2h-8.8V21c2.1,0,2.3-0.6,2.3-2.6V9.9c0-2-0.2-2.6-2.3-2.6L156.6,7.2L156.6,7.2z"/>
	<path class="st1" d="M17.1,43.5c0,0.6-0.1,1.1-0.3,1.4c-0.2,0.3-0.6,0.6-1,0.9c-0.3,0.2-0.6,0.3-1,0.5c-0.4,0.1-0.9,0.3-1.4,0.4
		c-0.5,0.1-1,0.2-1.6,0.2c-0.5,0.1-1.1,0.1-1.6,0.1c-1.4,0-2.8-0.2-4-0.6c-1.2-0.4-2.3-1-3.2-1.7c-0.9-0.8-1.6-1.8-2.2-2.9
		c-0.5-1.2-0.8-2.5-0.8-4c0-1.6,0.3-3,0.9-4.2c0.6-1.2,1.4-2.2,2.3-3c1-0.8,2-1.4,3.3-1.8S9,28,10.3,28c1.9,0,3.4,0.3,4.4,0.9
		c1.1,0.6,1.6,1.4,1.6,2.4c0,0.5-0.1,1-0.4,1.3c-0.3,0.4-0.5,0.7-0.9,0.9c-0.5-0.3-1.1-0.6-1.8-0.9c-0.7-0.3-1.6-0.4-2.5-0.4
		c-1.7,0-3,0.5-3.9,1.4c-1,0.9-1.5,2.3-1.5,3.9c0,0.9,0.1,1.7,0.4,2.4C6,40.5,6.3,41,6.8,41.5c0.5,0.4,1,0.7,1.6,1
		c0.6,0.2,1.2,0.3,1.9,0.3c0.4,0,0.8,0,1.1-0.1c0.3-0.1,0.6-0.2,0.8-0.3v-2.8H9c-0.1-0.2-0.2-0.5-0.3-0.9c-0.1-0.4-0.2-0.7-0.2-1.1
		c0-0.7,0.2-1.2,0.5-1.5c0.3-0.3,0.7-0.5,1.3-0.5h5c0.6,0,1,0.2,1.4,0.5c0.3,0.3,0.5,0.8,0.5,1.4C17.1,37.4,17.1,43.5,17.1,43.5z"/>
	<path class="st1" d="M26.2,31.6c1.1,0,2,0.1,2.9,0.3c0.9,0.2,1.6,0.5,2.2,1c0.6,0.4,1.1,1,1.4,1.7c0.3,0.7,0.5,1.5,0.5,2.4v6.6
		c0,0.5-0.1,0.9-0.4,1.3c-0.3,0.3-0.6,0.6-1,0.8c-1.3,0.8-3.1,1.2-5.4,1.2c-1,0-2-0.1-2.8-0.3c-0.8-0.2-1.6-0.5-2.2-0.9
		c-0.6-0.4-1.1-0.9-1.4-1.5c-0.3-0.6-0.5-1.3-0.5-2.1c0-1.4,0.4-2.4,1.2-3.1c0.8-0.7,2.1-1.2,3.7-1.4l3.9-0.4v-0.2
		c0-0.6-0.3-1-0.8-1.2c-0.5-0.2-1.2-0.4-2.2-0.4c-0.8,0-1.5,0.1-2.2,0.2c-0.7,0.2-1.4,0.4-1.9,0.6c-0.3-0.2-0.5-0.5-0.6-0.8
		c-0.2-0.4-0.3-0.7-0.3-1.1c0-0.5,0.1-0.9,0.4-1.2c0.2-0.3,0.6-0.6,1.1-0.8c0.6-0.2,1.2-0.4,2-0.5C24.8,31.6,25.5,31.6,26.2,31.6
		 M26.4,43.2c0.3,0,0.7,0,1.1-0.1c0.4-0.1,0.7-0.2,0.9-0.3v-2.4l-2.1,0.2c-0.5,0-1,0.2-1.4,0.4c-0.4,0.2-0.5,0.5-0.5,0.9
		c0,0.4,0.1,0.7,0.5,1C25.2,43.1,25.7,43.2,26.4,43.2"/>
	<path class="st1" d="M43.2,31.6c0.8,0,1.6,0.1,2.4,0.3c0.8,0.2,1.4,0.6,2,1c0.6-0.4,1.3-0.7,2-1c0.7-0.3,1.6-0.4,2.7-0.4
		c0.7,0,1.5,0.1,2.2,0.3c0.7,0.2,1.4,0.5,1.9,0.9c0.6,0.4,1,1,1.3,1.7c0.3,0.7,0.5,1.5,0.5,2.6v9.3c-0.2,0.1-0.5,0.1-0.9,0.2
		c-0.4,0.1-0.9,0.1-1.3,0.1c-0.4,0-0.8,0-1.2-0.1c-0.3-0.1-0.6-0.2-0.9-0.4c-0.2-0.2-0.4-0.4-0.5-0.7s-0.2-0.7-0.2-1.2v-7.1
		c0-0.6-0.2-1-0.5-1.3c-0.3-0.3-0.8-0.4-1.4-0.4c-0.3,0-0.6,0.1-0.9,0.2c-0.3,0.1-0.6,0.3-0.7,0.4c0,0.1,0,0.2,0,0.2v0.2v9.8
		c-0.2,0.1-0.5,0.1-1,0.2c-0.4,0.1-0.9,0.1-1.3,0.1c-0.4,0-0.8,0-1.2-0.1c-0.3-0.1-0.6-0.2-0.9-0.4c-0.2-0.2-0.4-0.4-0.5-0.7
		s-0.2-0.7-0.2-1.2v-7.1c0-0.6-0.2-1-0.5-1.3c-0.4-0.3-0.8-0.4-1.3-0.4c-0.4,0-0.7,0.1-0.9,0.2c-0.3,0.1-0.5,0.2-0.6,0.3v10.4
		c-0.2,0.1-0.5,0.1-0.9,0.2c-0.4,0.1-0.9,0.1-1.3,0.1c-0.4,0-0.8,0-1.2-0.1c-0.3-0.1-0.6-0.2-0.9-0.4c-0.2-0.2-0.4-0.4-0.5-0.7
		c-0.1-0.3-0.2-0.7-0.2-1.2v-8.9c0-0.5,0.1-1,0.3-1.3c0.2-0.3,0.5-0.6,0.9-0.9c0.7-0.5,1.5-0.9,2.5-1.2
		C41.1,31.7,42.1,31.6,43.2,31.6"/>
	<path class="st1" d="M68.9,46.8c-1.2,0-2.2-0.2-3.2-0.5c-1-0.3-1.9-0.8-2.6-1.5c-0.7-0.7-1.3-1.5-1.7-2.5c-0.4-1-0.6-2.1-0.6-3.5
		c0-1.3,0.2-2.4,0.6-3.4c0.4-0.9,1-1.7,1.7-2.3c0.7-0.6,1.5-1,2.4-1.3s1.8-0.4,2.7-0.4c1,0,2,0.2,2.9,0.5c0.9,0.3,1.6,0.7,2.2,1.3
		c0.6,0.5,1.1,1.2,1.4,2c0.3,0.8,0.5,1.6,0.5,2.5c0,0.7-0.2,1.2-0.6,1.5c-0.4,0.4-0.9,0.6-1.6,0.7l-7.3,1.1c0.2,0.7,0.7,1.1,1.3,1.5
		c0.7,0.3,1.4,0.5,2.3,0.5c0.8,0,1.6-0.1,2.3-0.3c0.7-0.2,1.3-0.5,1.8-0.7c0.3,0.2,0.6,0.5,0.8,0.8c0.2,0.4,0.3,0.7,0.3,1.1
		c0,0.9-0.4,1.5-1.2,2c-0.6,0.3-1.3,0.6-2.1,0.7C70.4,46.8,69.6,46.8,68.9,46.8 M68.1,35.2c-0.5,0-0.9,0.1-1.2,0.2
		c-0.3,0.2-0.6,0.4-0.8,0.6c-0.2,0.2-0.4,0.5-0.5,0.8c-0.1,0.3-0.2,0.6-0.2,0.9l5.1-0.8c-0.1-0.4-0.3-0.8-0.7-1.2
		C69.4,35.4,68.8,35.2,68.1,35.2"/>
	<path class="st1" d="M87.1,28.5c0.2,0,0.6-0.1,1-0.2c0.5-0.1,0.9-0.1,1.4-0.1c0.5,0,0.9,0,1.2,0.1c0.3,0.1,0.6,0.2,0.9,0.4
		c0.2,0.2,0.4,0.4,0.5,0.7c0.1,0.3,0.2,0.7,0.2,1.2v10.9c0,1.8-0.5,3.1-1.5,3.9c-1,0.9-2.5,1.3-4.4,1.3c-1,0-1.8-0.2-2.5-0.5
		c-0.5-0.2-0.8-0.5-1-0.9s-0.3-0.8-0.3-1.3c0-0.4,0.1-0.7,0.2-1c0.1-0.3,0.2-0.5,0.4-0.7c0.4,0.1,0.7,0.1,1,0.2c0.3,0,0.6,0,0.9,0
		c0.8,0,1.3-0.2,1.7-0.6c0.3-0.4,0.5-1,0.5-1.7L87.1,28.5L87.1,28.5z"/>
	<path class="st1" d="M101.5,31.6c1.1,0,2,0.1,2.9,0.3c0.9,0.2,1.6,0.5,2.2,1c0.6,0.4,1.1,1,1.4,1.7c0.3,0.7,0.5,1.5,0.5,2.4v6.6
		c0,0.5-0.1,0.9-0.4,1.3c-0.3,0.3-0.6,0.6-1,0.8c-1.3,0.8-3.1,1.2-5.4,1.2c-1,0-2-0.1-2.8-0.3c-0.8-0.2-1.6-0.5-2.2-0.9
		c-0.6-0.4-1.1-0.9-1.4-1.5c-0.3-0.6-0.5-1.3-0.5-2.1c0-1.4,0.4-2.4,1.2-3.1c0.8-0.7,2.1-1.2,3.8-1.4l3.9-0.4v-0.2
		c0-0.6-0.2-1-0.8-1.2c-0.5-0.2-1.2-0.4-2.2-0.4c-0.7,0-1.5,0.1-2.2,0.2c-0.7,0.2-1.4,0.4-1.9,0.6c-0.3-0.2-0.5-0.5-0.6-0.8
		s-0.3-0.7-0.3-1.1c0-0.5,0.1-0.9,0.4-1.2c0.2-0.3,0.6-0.6,1.1-0.8c0.6-0.2,1.2-0.4,2-0.5C100.1,31.6,100.9,31.6,101.5,31.6
		 M101.8,43.2c0.3,0,0.7,0,1.1-0.1c0.4-0.1,0.7-0.2,0.9-0.3v-2.4l-2.1,0.2c-0.6,0-1,0.2-1.4,0.4c-0.3,0.2-0.5,0.5-0.5,0.9
		c0,0.4,0.2,0.7,0.5,1C100.5,43.1,101.1,43.2,101.8,43.2"/>
	<path class="st1" d="M118.6,31.6c0.8,0,1.6,0.1,2.4,0.3c0.8,0.2,1.4,0.6,2,1c0.6-0.4,1.3-0.7,2-1c0.7-0.3,1.6-0.4,2.7-0.4
		c0.8,0,1.5,0.1,2.2,0.3c0.7,0.2,1.4,0.5,1.9,0.9c0.6,0.4,1,1,1.3,1.7c0.3,0.7,0.5,1.5,0.5,2.6v9.3c-0.2,0.1-0.5,0.1-0.9,0.2
		c-0.4,0.1-0.9,0.1-1.3,0.1c-0.4,0-0.8,0-1.2-0.1c-0.4-0.1-0.6-0.2-0.9-0.4c-0.2-0.2-0.4-0.4-0.5-0.7c-0.1-0.3-0.2-0.7-0.2-1.2v-7.1
		c0-0.6-0.2-1-0.5-1.3c-0.3-0.3-0.8-0.4-1.4-0.4c-0.3,0-0.6,0.1-0.9,0.2c-0.3,0.1-0.6,0.3-0.7,0.4c0,0.1,0,0.2,0,0.2v0.2v9.8
		c-0.2,0.1-0.5,0.1-1,0.2c-0.4,0.1-0.9,0.1-1.3,0.1c-0.4,0-0.8,0-1.2-0.1c-0.3-0.1-0.6-0.2-0.9-0.4c-0.2-0.2-0.4-0.4-0.5-0.7
		c-0.1-0.3-0.2-0.7-0.2-1.2v-7.1c0-0.6-0.2-1-0.5-1.3c-0.4-0.3-0.8-0.4-1.3-0.4c-0.4,0-0.7,0.1-0.9,0.2c-0.3,0.1-0.5,0.2-0.6,0.3
		v10.4c-0.2,0.1-0.5,0.1-0.9,0.2c-0.4,0.1-0.9,0.1-1.3,0.1c-0.4,0-0.8,0-1.2-0.1c-0.3-0.1-0.6-0.2-0.9-0.4c-0.2-0.2-0.4-0.4-0.5-0.7
		c-0.1-0.3-0.2-0.7-0.2-1.2v-8.9c0-0.5,0.1-1,0.3-1.3c0.2-0.3,0.5-0.6,0.9-0.9c0.7-0.5,1.5-0.9,2.5-1.2
		C116.5,31.7,117.5,31.6,118.6,31.6"/>
	<path class="st1" d="M148.8,42.1c0,1.5-0.6,2.7-1.7,3.5c-1.1,0.8-2.8,1.3-5,1.3c-0.8,0-1.6-0.1-2.3-0.2c-0.7-0.1-1.3-0.3-1.8-0.5
		c-0.5-0.2-0.9-0.6-1.2-0.9c-0.3-0.4-0.4-0.8-0.4-1.3c0-0.5,0.1-0.9,0.3-1.2c0.2-0.3,0.4-0.6,0.7-0.8c0.6,0.3,1.2,0.6,2,0.8
		c0.7,0.2,1.6,0.4,2.6,0.4c0.6,0,1.1-0.1,1.4-0.3c0.3-0.2,0.5-0.4,0.5-0.7c0-0.3-0.1-0.5-0.4-0.7c-0.2-0.2-0.6-0.3-1.2-0.4l-0.9-0.2
		c-1.7-0.3-3-0.9-3.8-1.6c-0.8-0.7-1.3-1.7-1.3-3.1c0-0.7,0.2-1.4,0.5-2c0.3-0.6,0.8-1.1,1.3-1.5c0.6-0.4,1.3-0.7,2.1-0.9
		c0.8-0.2,1.7-0.3,2.6-0.3c0.7,0,1.4,0.1,2.1,0.2c0.6,0.1,1.2,0.3,1.7,0.5c0.5,0.2,0.8,0.5,1.1,0.8c0.3,0.3,0.4,0.8,0.4,1.2
		c0,0.5-0.1,0.8-0.3,1.2c-0.2,0.3-0.4,0.6-0.6,0.8c-0.2-0.1-0.4-0.2-0.7-0.3c-0.3-0.1-0.7-0.2-1-0.3c-0.4-0.1-0.8-0.2-1.1-0.2
		c-0.4-0.1-0.7-0.1-1.1-0.1c-0.6,0-1.1,0.1-1.5,0.2c-0.4,0.1-0.5,0.4-0.5,0.7c0,0.2,0.1,0.4,0.3,0.5c0.2,0.1,0.6,0.3,1.1,0.4
		l0.9,0.2c1.9,0.4,3.2,1,4,1.8C148.4,39.9,148.8,40.9,148.8,42.1"/>
	<path class="st1" d="M169.7,35.2c0.4-0.2,0.7-0.3,1.1-0.3c0.3-0.1,0.6-0.1,1-0.1c0.5,0,0.9,0.1,1.1,0.2c0.3,0.1,0.5,0.3,0.7,0.6
		c0.2,0.2,0.3,0.5,0.3,0.9c0.1,0.3,0.1,0.7,0.1,1.1c0,1.6-0.4,3.1-1.2,4.6l2.3,2.2c0,0.7-0.3,1.4-0.8,1.8c-0.5,0.5-1,0.7-1.7,0.7
		c-0.8,0-1.6-0.4-2.3-1.1l-0.6-0.5c-0.7,0.5-1.6,0.9-2.5,1.3c-0.9,0.3-2,0.5-3.1,0.5c-1.2,0-2.2-0.2-3.1-0.5
		c-0.9-0.3-1.6-0.7-2.2-1.3c-0.6-0.5-1.1-1.2-1.4-1.9c-0.3-0.7-0.5-1.5-0.5-2.3c0-0.7,0.1-1.4,0.3-2c0.2-0.6,0.5-1.1,0.9-1.5
		c0.4-0.4,0.8-0.8,1.2-1.1c0.4-0.3,0.9-0.6,1.3-0.8c-0.4-0.5-0.7-1-0.8-1.5c-0.2-0.5-0.2-1-0.2-1.5c0-0.6,0.1-1.2,0.4-1.7
		c0.3-0.5,0.6-1,1.1-1.4c0.5-0.4,1-0.7,1.7-0.9c0.7-0.2,1.4-0.3,2.3-0.3c1.2,0,2.1,0.2,2.6,0.7c0.5,0.4,0.8,1,0.8,1.7
		c0,0.3-0.1,0.7-0.2,1c-0.1,0.3-0.3,0.6-0.6,0.9c-0.2-0.1-0.5-0.2-0.8-0.2c-0.3-0.1-0.6-0.1-0.9-0.1c-0.5,0-0.9,0.1-1.3,0.2
		c-0.3,0.2-0.5,0.4-0.5,0.9c0,0.3,0.1,0.6,0.4,0.9c0.3,0.3,0.6,0.6,0.9,1l3.8,3.7c0.1-0.4,0.2-0.9,0.2-1.5
		C169.7,36.7,169.7,36,169.7,35.2 M161.7,40.6c0,0.7,0.2,1.3,0.7,1.7c0.5,0.5,1.1,0.7,2.1,0.7c0.4,0,0.8-0.1,1.2-0.2
		c0.4-0.1,0.8-0.3,1.2-0.5l-3.8-3.8c-0.5,0.2-0.8,0.5-1.1,0.9S161.7,40.2,161.7,40.6"/>
	<path class="st1" d="M6.1,71.8c-0.2,0.1-0.6,0.1-1,0.2C4.6,72,4.1,72,3.7,72c-0.5,0-0.9,0-1.2-0.1c-0.3-0.1-0.6-0.2-0.9-0.4
		c-0.2-0.2-0.4-0.4-0.5-0.7c-0.1-0.3-0.2-0.7-0.2-1.2V55.7c0-0.4,0.1-0.7,0.3-1c0.2-0.2,0.5-0.4,0.9-0.5c0.7-0.2,1.4-0.4,2.3-0.5
		c0.9-0.1,1.7-0.2,2.6-0.2c2.7,0,4.8,0.6,6.2,1.7c1.4,1.2,2.2,2.7,2.2,4.7c0,1-0.2,1.8-0.5,2.6c-0.3,0.8-0.8,1.4-1.4,2
		c-0.6,0.6-1.4,1-2.3,1.3c-0.9,0.3-2,0.5-3.2,0.5H6.1V71.8z M7.6,62.3c0.8,0,1.5-0.2,1.9-0.6c0.4-0.4,0.7-1,0.7-1.8
		c0-0.8-0.2-1.3-0.7-1.7c-0.5-0.4-1.1-0.6-2-0.6c-0.3,0-0.6,0-0.8,0c-0.2,0-0.4,0-0.6,0.1v4.6L7.6,62.3L7.6,62.3z"/>
	<path class="st1" d="M32.1,64.7c0,1.2-0.2,2.3-0.6,3.3c-0.4,1-0.9,1.8-1.6,2.4c-0.7,0.7-1.5,1.1-2.4,1.5c-0.9,0.3-2,0.5-3.2,0.5
		c-1.2,0-2.2-0.2-3.2-0.5c-0.9-0.4-1.8-0.9-2.4-1.5c-0.7-0.7-1.2-1.5-1.6-2.4c-0.4-0.9-0.6-2-0.6-3.2c0-1.2,0.2-2.2,0.6-3.2
		c0.4-0.9,0.9-1.7,1.6-2.4c0.7-0.7,1.5-1.2,2.4-1.5c1-0.4,2-0.5,3.2-0.5c1.2,0,2.2,0.2,3.2,0.5c0.9,0.4,1.8,0.9,2.4,1.5
		c0.7,0.7,1.2,1.5,1.6,2.4S32.1,63.6,32.1,64.7 M21.7,64.7c0,1.2,0.2,2.1,0.7,2.8c0.5,0.6,1.1,1,1.9,1s1.5-0.3,1.9-1
		c0.4-0.6,0.7-1.6,0.7-2.7c0-1.2-0.2-2.1-0.7-2.7c-0.5-0.6-1.1-1-1.9-1c-0.8,0-1.5,0.3-1.9,1C22,62.6,21.7,63.5,21.7,64.7"/>
	<path class="st1" d="M42.1,72.4c-1.2,0-2.2-0.2-3.2-0.5c-1-0.3-1.9-0.8-2.6-1.5c-0.7-0.6-1.3-1.5-1.7-2.5c-0.4-1-0.6-2.1-0.6-3.5
		c0-1.3,0.2-2.4,0.6-3.4c0.4-0.9,1-1.7,1.7-2.3c0.7-0.6,1.5-1,2.4-1.3c0.9-0.3,1.8-0.4,2.7-0.4c1,0,2,0.2,2.8,0.5
		c0.9,0.3,1.6,0.7,2.2,1.3c0.6,0.6,1.1,1.2,1.4,2c0.3,0.8,0.5,1.6,0.5,2.5c0,0.7-0.2,1.2-0.6,1.5c-0.4,0.4-0.9,0.6-1.6,0.7l-7.3,1.1
		c0.2,0.7,0.7,1.1,1.3,1.5c0.7,0.3,1.4,0.5,2.3,0.5c0.8,0,1.6-0.1,2.3-0.3c0.7-0.2,1.3-0.4,1.8-0.7c0.3,0.2,0.6,0.5,0.8,0.8
		c0.2,0.4,0.3,0.7,0.3,1.1c0,0.9-0.4,1.5-1.2,2c-0.6,0.3-1.3,0.6-2.1,0.7C43.6,72.3,42.8,72.4,42.1,72.4 M41.3,60.7
		c-0.5,0-0.9,0.1-1.2,0.2c-0.3,0.2-0.6,0.4-0.8,0.6c-0.2,0.2-0.4,0.5-0.5,0.8c-0.1,0.3-0.2,0.6-0.2,0.9l5.1-0.8
		c-0.1-0.4-0.3-0.8-0.6-1.2S42,60.7,41.3,60.7"/>
	<path class="st1" d="M55.8,66.9c0,0.5,0.2,0.9,0.5,1.1c0.3,0.2,0.8,0.3,1.4,0.3c0.3,0,0.6,0,0.9-0.1c0.3-0.1,0.6-0.1,0.8-0.2
		c0.2,0.2,0.3,0.5,0.5,0.7c0.1,0.3,0.2,0.6,0.2,1c0,0.7-0.3,1.4-0.8,1.8c-0.6,0.5-1.5,0.7-3,0.7c-1.7,0-3.1-0.4-4-1.2
		c-0.9-0.8-1.4-2.1-1.4-3.8V54.7c0.2-0.1,0.5-0.1,0.9-0.2s0.8-0.1,1.3-0.1c0.9,0,1.5,0.2,2,0.5c0.5,0.3,0.7,1,0.7,1.9v1.9h3.9
		c0.1,0.2,0.2,0.5,0.3,0.8c0.1,0.3,0.2,0.7,0.2,1.1c0,0.7-0.2,1.2-0.5,1.5c-0.3,0.3-0.7,0.5-1.2,0.5h-2.7
		C55.8,62.5,55.8,66.9,55.8,66.9z"/>
	<path class="st1" d="M67.6,71.9c-0.2,0.1-0.5,0.1-0.9,0.2s-0.9,0.1-1.3,0.1c-0.4,0-0.8,0-1.2-0.1c-0.3-0.1-0.6-0.2-0.9-0.4
		c-0.2-0.2-0.4-0.4-0.5-0.7c-0.1-0.3-0.2-0.7-0.2-1.2v-8.9c0-0.5,0.1-0.8,0.2-1.2c0.2-0.3,0.4-0.6,0.7-0.9c0.3-0.3,0.7-0.5,1.2-0.7
		c0.5-0.2,1-0.4,1.5-0.5c0.5-0.2,1.1-0.3,1.7-0.4c0.6-0.1,1.1-0.1,1.7-0.1c0.9,0,1.7,0.2,2.2,0.5c0.6,0.4,0.8,1,0.8,1.8
		c0,0.3,0,0.5-0.1,0.8c-0.1,0.3-0.2,0.5-0.3,0.7c-0.4,0-0.8,0-1.3,0.1c-0.4,0-0.9,0.1-1.3,0.2c-0.4,0.1-0.8,0.2-1.2,0.3
		c-0.4,0.1-0.7,0.2-0.9,0.3V71.9z"/>
	<path class="st1" d="M77.4,68.2c-0.2-0.5-0.4-1-0.7-1.7c-0.2-0.6-0.5-1.3-0.8-2.1c-0.3-0.8-0.5-1.7-0.8-2.7c-0.3-1-0.6-2.2-0.9-3.5
		c0.3-0.3,0.6-0.5,1.1-0.7c0.5-0.2,1-0.3,1.5-0.3c0.7,0,1.3,0.1,1.7,0.4c0.5,0.3,0.8,0.8,1,1.6l2.3,8.1h0.1c0.2-0.7,0.5-1.4,0.7-2.2
		c0.2-0.8,0.5-1.6,0.7-2.4c0.2-0.8,0.4-1.7,0.6-2.5c0.2-0.8,0.3-1.7,0.5-2.5c0.7-0.4,1.5-0.6,2.3-0.6c0.7,0,1.3,0.1,1.7,0.4
		c0.5,0.3,0.7,0.8,0.7,1.5c0,0.5-0.1,1.1-0.2,1.8s-0.3,1.4-0.5,2.2c-0.2,0.8-0.5,1.6-0.8,2.4c-0.3,0.8-0.6,1.7-1,2.5
		c-0.3,0.8-0.7,1.6-1,2.3c-0.3,0.7-0.7,1.4-1,1.9c-0.6,1-1.1,1.8-1.5,2.4c-0.5,0.6-0.9,1.1-1.4,1.4c-0.4,0.3-0.9,0.6-1.3,0.7
		c-0.4,0.1-0.9,0.2-1.4,0.2c-0.8,0-1.5-0.2-2-0.7c-0.5-0.5-0.8-1.1-0.9-1.9c0.6-0.5,1.3-1,1.9-1.6c0.6-0.6,1.2-1.2,1.7-1.8
		c-0.3-0.1-0.7-0.3-1.1-0.7C78.3,69.9,77.9,69.2,77.4,68.2"/>
	<path class="st1" d="M102.8,64.8c-0.9-0.3-1.7-0.6-2.4-0.9c-0.7-0.3-1.3-0.7-1.8-1.1c-0.5-0.4-0.9-0.9-1.2-1.6
		C97.2,60.6,97,59.9,97,59c0-1.7,0.6-3,1.9-4c1.3-1,3.1-1.5,5.4-1.5c0.9,0,1.6,0.1,2.4,0.2c0.7,0.1,1.4,0.3,1.9,0.5
		c0.5,0.2,0.9,0.6,1.2,0.9c0.3,0.4,0.4,0.8,0.4,1.3c0,0.5-0.1,1-0.4,1.3s-0.5,0.7-0.9,0.9c-0.4-0.3-1-0.5-1.7-0.7
		c-0.7-0.2-1.5-0.3-2.4-0.3c-0.9,0-1.5,0.1-1.9,0.4c-0.4,0.2-0.6,0.6-0.6,0.9c0,0.3,0.1,0.5,0.4,0.7c0.3,0.2,0.6,0.4,1.2,0.5
		l1.6,0.5c1.9,0.6,3.3,1.3,4.3,2.3c1,0.9,1.5,2.2,1.5,3.7c0,1.7-0.7,3-2,4.1c-1.3,1-3.3,1.6-5.8,1.6c-0.9,0-1.7-0.1-2.5-0.2
		c-0.8-0.1-1.5-0.4-2-0.7c-0.6-0.3-1-0.6-1.4-1.1C97.2,70,97,69.5,97,69c0-0.6,0.2-1.1,0.5-1.5c0.3-0.4,0.7-0.7,1.1-0.9
		c0.5,0.4,1.2,0.8,2,1.1c0.8,0.3,1.7,0.5,2.6,0.5c1,0,1.6-0.1,2-0.4c0.4-0.3,0.6-0.6,0.6-1c0-0.4-0.2-0.7-0.5-0.9
		c-0.3-0.2-0.8-0.4-1.3-0.6L102.8,64.8z"/>
	<path class="st1" d="M118.8,71.9c-0.2,0-0.5,0.1-1,0.2c-0.4,0.1-0.9,0.1-1.3,0.1c-0.4,0-0.8,0-1.2-0.1c-0.3-0.1-0.6-0.2-0.9-0.4
		c-0.2-0.2-0.4-0.4-0.5-0.7c-0.1-0.3-0.2-0.7-0.2-1.2V52.6c0.2,0,0.5-0.1,1-0.2c0.4-0.1,0.9-0.1,1.3-0.1c0.4,0,0.8,0,1.2,0.1
		c0.3,0.1,0.6,0.2,0.9,0.4c0.2,0.2,0.4,0.4,0.5,0.7c0.1,0.3,0.2,0.7,0.2,1.2L118.8,71.9L118.8,71.9z"/>
	<path class="st1" d="M127.8,57.1c1.1,0,2,0.1,2.9,0.3c0.9,0.2,1.6,0.5,2.2,1c0.6,0.4,1.1,1,1.4,1.7c0.3,0.7,0.5,1.5,0.5,2.4v6.6
		c0,0.5-0.1,0.9-0.4,1.3c-0.3,0.3-0.6,0.6-1,0.8c-1.3,0.8-3.1,1.2-5.4,1.2c-1,0-2-0.1-2.8-0.3c-0.8-0.2-1.6-0.5-2.2-0.9
		c-0.6-0.4-1.1-0.9-1.4-1.5c-0.3-0.6-0.5-1.3-0.5-2.1c0-1.4,0.4-2.4,1.2-3.1c0.8-0.7,2.1-1.2,3.7-1.4l3.9-0.4v-0.2
		c0-0.6-0.3-1-0.8-1.2s-1.2-0.4-2.2-0.4c-0.7,0-1.5,0.1-2.2,0.2c-0.7,0.2-1.3,0.4-1.9,0.6c-0.3-0.2-0.5-0.4-0.6-0.8
		c-0.2-0.4-0.3-0.7-0.3-1.1c0-0.5,0.1-0.9,0.4-1.2c0.2-0.3,0.6-0.6,1.1-0.8c0.6-0.2,1.3-0.4,2-0.5C126.4,57.1,127.2,57.1,127.8,57.1
		 M128.1,68.7c0.3,0,0.7,0,1.1-0.1c0.4-0.1,0.7-0.2,0.9-0.3v-2.4l-2.1,0.2c-0.5,0-1,0.2-1.4,0.4c-0.4,0.2-0.5,0.5-0.5,0.9
		c0,0.4,0.2,0.7,0.5,1C126.8,68.6,127.3,68.7,128.1,68.7"/>
	<path class="st1" d="M144.9,57.1c0.8,0,1.6,0.1,2.4,0.3c0.8,0.2,1.5,0.6,2,1c0.6-0.4,1.3-0.7,2-1c0.7-0.3,1.6-0.4,2.7-0.4
		c0.8,0,1.5,0.1,2.2,0.3c0.7,0.2,1.4,0.5,1.9,0.9c0.6,0.4,1,1,1.3,1.7c0.3,0.7,0.5,1.6,0.5,2.6v9.3c-0.2,0.1-0.5,0.1-0.9,0.2
		c-0.4,0.1-0.9,0.1-1.3,0.1c-0.4,0-0.8,0-1.2-0.1c-0.3-0.1-0.6-0.2-0.9-0.4c-0.2-0.2-0.4-0.4-0.6-0.7c-0.1-0.3-0.2-0.7-0.2-1.2v-7.1
		c0-0.6-0.2-1-0.5-1.3c-0.3-0.3-0.8-0.4-1.4-0.4c-0.3,0-0.6,0.1-0.9,0.2c-0.3,0.1-0.5,0.3-0.7,0.4c0,0.1,0,0.2,0,0.2V62v9.8
		c-0.2,0.1-0.5,0.1-1,0.2c-0.4,0.1-0.9,0.1-1.3,0.1c-0.4,0-0.8,0-1.2-0.1c-0.4-0.1-0.6-0.2-0.9-0.4c-0.2-0.2-0.4-0.4-0.6-0.7
		c-0.1-0.3-0.2-0.7-0.2-1.2v-7.1c0-0.6-0.2-1-0.5-1.3c-0.4-0.3-0.8-0.4-1.3-0.4c-0.3,0-0.7,0.1-0.9,0.2c-0.3,0.1-0.5,0.2-0.7,0.3
		v10.4c-0.2,0.1-0.5,0.1-0.9,0.2s-0.9,0.1-1.3,0.1c-0.4,0-0.8,0-1.2-0.1c-0.4-0.1-0.6-0.2-0.9-0.4c-0.2-0.2-0.4-0.4-0.5-0.7
		c-0.1-0.3-0.2-0.7-0.2-1.2v-8.9c0-0.5,0.1-1,0.3-1.3c0.2-0.3,0.5-0.6,0.9-0.9c0.7-0.5,1.5-0.9,2.5-1.2S143.8,57.1,144.9,57.1"/>
	<path class="st1" d="M175.1,67.6c0,1.5-0.6,2.7-1.7,3.5c-1.1,0.9-2.8,1.3-5,1.3c-0.8,0-1.6-0.1-2.3-0.2c-0.7-0.1-1.3-0.3-1.8-0.5
		c-0.5-0.2-0.9-0.6-1.2-0.9c-0.3-0.4-0.4-0.8-0.4-1.3c0-0.5,0.1-0.9,0.3-1.2c0.2-0.3,0.4-0.6,0.7-0.8c0.6,0.3,1.2,0.6,2,0.8
		s1.6,0.4,2.6,0.4c0.6,0,1.1-0.1,1.4-0.3c0.3-0.2,0.5-0.4,0.5-0.7c0-0.3-0.1-0.5-0.4-0.7c-0.2-0.2-0.6-0.3-1.2-0.4l-0.9-0.2
		c-1.7-0.3-3-0.9-3.8-1.6c-0.8-0.7-1.3-1.7-1.3-3.1c0-0.7,0.2-1.4,0.5-2c0.3-0.6,0.8-1.1,1.3-1.5c0.6-0.4,1.3-0.7,2.1-0.9
		c0.8-0.2,1.7-0.3,2.6-0.3c0.7,0,1.4,0.1,2.1,0.2c0.6,0.1,1.2,0.3,1.7,0.5c0.5,0.2,0.9,0.5,1.1,0.8c0.3,0.3,0.4,0.8,0.4,1.2
		c0,0.5-0.1,0.8-0.3,1.2c-0.2,0.3-0.4,0.6-0.6,0.8c-0.2-0.1-0.4-0.2-0.7-0.3c-0.3-0.1-0.7-0.2-1-0.3c-0.4-0.1-0.8-0.2-1.1-0.2
		c-0.4-0.1-0.7-0.1-1-0.1c-0.6,0-1.1,0.1-1.5,0.2c-0.3,0.2-0.5,0.4-0.5,0.7c0,0.2,0.1,0.4,0.3,0.5c0.2,0.1,0.6,0.3,1.1,0.4l0.9,0.2
		c1.9,0.4,3.2,1,4,1.8C174.7,65.4,175.1,66.4,175.1,67.6"/>
</g>
</svg>
