<?xml version="1.0" encoding="utf-8"?>
<!-- Generator: Adobe Illustrator 16.0.0, SVG Export Plug-In . SVG Version: 6.00 Build 0)  -->
<!DOCTYPE svg PUBLIC "-//W3C//DTD SVG 1.1//EN" "http://www.w3.org/Graphics/SVG/1.1/DTD/svg11.dtd">
<svg version="1.1" id="Layer_1" xmlns="http://www.w3.org/2000/svg" xmlns:xlink="http://www.w3.org/1999/xlink" x="0px" y="0px"
	 width="175.118px" height="82.785px" viewBox="0 0 175.118 82.785" enable-background="new 0 0 175.118 82.785"
	 xml:space="preserve">
<g>
	<path fill="#4D44A5" d="M0.322,21.128H0.161v-9.206h0.161c0,2.658,1.353,5.243,3.24,6.97c1.497,1.382,3.33,2.236,5.112,2.236
		c2.772,0,3.486-2.262,3.486-3.674c0-2.793-2.849-3.563-4.575-4.043l-1.548-0.426C3.222,12.211,0,10.668,0,6.837
		c0-1.012,0.267-2.075,0.799-3.006C1.81,2.045,5.11,0.055,7.984,0.055c1.251,0,2.05,0.234,2.713,0.502
		c0.8,0.319,1.438,0.637,2.475,0.637c0.825,0,1.65-0.131,1.726-1.194h0.188v7.636h-0.158c0-1.65-0.505-3.193-2.207-5.242
		C11.39,0.769,9.685,0.238,8.248,0.238c-1.114,0-1.939,0.267-2.713,1.386C5.242,2.074,5.11,2.742,5.11,3.351
		c0,3.167,3.164,3.728,4.176,3.966l1.25,0.293c1.599,0.371,6.522,1.276,6.522,6.438c0,1.676-0.611,3.487-2.13,4.924
		c-1.833,1.752-3.355,2.368-5.774,2.368c-3.143,0-5.932-1.437-7.318-1.437C1.173,19.903,0.587,20.167,0.322,21.128"/>
	<path fill="#4D44A5" d="M32.29,19.453c0,0.425,0,1.169,0.425,1.169c0.37,0,1.276-0.769,1.352-3.593h0.188
		c0,0.638-0.162,3.168-1.382,3.806c-0.613,0.344-1.408,0.506-2.156,0.506c-0.531,0-1.012-0.081-1.412-0.243
		c-1.488-0.582-1.938-1.194-2.363-2.768c-0.562,1.761-1.361,2.475-2.106,2.768c-0.399,0.162-0.88,0.187-1.462,0.187
		c-2.263,0-4.58-0.637-4.58-3.537c0-0.43,0.081-0.85,0.187-1.225c0.587-1.888,1.786-2.075,3.619-2.394l0.642-0.106
		c3.538-0.587,3.7-2.424,3.7-3.993c0-2.581-0.911-2.793-1.919-2.793c-0.557,0-2.206,0.081-2.742,1.386
		c0.161-0.081,0.374-0.106,0.586-0.106c0.957,0,2.237,0.714,2.237,2.206c0,1.595-1.386,2.607-2.687,2.607
		c-1.306,0-2.585-1.037-2.585-2.662c0-2.207,2.768-3.67,6.097-3.67c1.624,0,3.35,0.345,4.524,1.17
		c1.752,1.225,1.837,2.819,1.837,4.337V19.453z M24.066,15.966c-0.085,0.527-0.111,0.982-0.111,1.407
		c0,0.617,0.056,1.174,0.111,1.812c0.025,0.531,0.077,1.539,0.74,1.539c0.187,0,0.399-0.047,0.535-0.183
		c1.514-0.982,1.57-3.35,1.57-5.374v-3.432c-0.107,0.638-0.532,1.088-0.796,1.276C24.38,14.286,24.253,14.473,24.066,15.966"/>
	<path fill="#4D44A5" d="M42.435,18.385c0,1.731,0.107,2.606,1.174,2.606v0.162H34.85v-0.162c2.075,0,2.262-0.637,2.262-2.606V9.868
		c0-1.964-0.187-2.525-2.262-2.525V7.156h7.585v2.368c0.932-2.156,2.688-2.526,4.048-2.526c0.902,0,2.688,0.158,3.538,1.276
		c0.132,0.212,0.425,0.531,0.587,0.905c0.45-1.092,1.676-2.181,3.937-2.181c3.35,0,4.627,1.833,4.627,4.868v6.519
		c0,1.969,0.187,2.606,2.261,2.606v0.162h-8.75v-0.162c1.063,0,1.169-0.875,1.169-2.606v-7.101c0-2.266-0.293-3.278-1.492-3.278
		c-0.183,0-0.345,0.025-0.502,0.106c-0.723,0.349-1.038,0.825-1.038,2.16v8.113c0,1.731,0.103,2.606,1.17,2.606v0.162h-7.692v-0.162
		c1.067,0,1.173-0.875,1.173-2.606v-6.787c0-2.767-0.323-3.405-1.305-3.405c-0.744,0-1.331,0.825-1.544,1.543
		c-0.187,0.613-0.187,1.412-0.187,2.449V18.385z"/>
	<path fill="#4D44A5" d="M66.915,0.476V0.319h18.041V8.3h-0.162c0-2.232-0.876-4.762-3.401-6.57
		c-1.498-1.042-2.773-1.254-5.192-1.254v9.504c2.529,0,3.856-0.825,4.707-3.062c0.085-0.238,0.298-1.199,0.298-2.075h0.157v10.486
		h-0.157c0-0.855-0.213-1.837-0.298-2.054c-0.851-2.258-2.178-3.113-4.707-3.113v7.748c0,2.287,0.187,3.082,3.006,3.082h0.162v0.162
		H66.915v-0.162h0.183c2.822,0,2.984-0.795,2.984-3.082V3.566c0-2.292-0.162-3.091-2.984-3.091H66.915z"/>
	<path fill="#4D44A5" d="M96.406,21.153h-9.873v-0.161c2.075,0,2.262-0.638,2.262-2.607V9.868c0-1.964-0.187-2.525-2.262-2.525
		V7.156h7.637v11.229c0,1.969,0.161,2.607,2.235,2.607V21.153z M91.245,0.986c1.595,0,2.926,1.165,2.926,2.581
		c0,1.408-1.331,2.581-2.926,2.581s-2.899-1.173-2.899-2.581C88.345,2.151,89.65,0.986,91.245,0.986"/>
	<path fill="#4D44A5" d="M96.929,7.156h7.607v2.369c0.668-1.702,2.236-2.527,4.153-2.527c1.114,0,2.05,0.29,2.765,0.851
		c1.306,1.037,1.522,2.313,1.522,4.018v6.518c0,1.969,0.182,2.607,2.257,2.607v0.162h-8.755v-0.162c1.089,0,1.173-0.901,1.173-2.607
		v-7.101c0-2.691-0.509-3.197-1.278-3.197c-0.158,0-0.957,0.081-1.383,0.931c-0.293,0.587-0.454,1.013-0.454,3.168v6.199
		c0,1.706,0.08,2.607,1.173,2.607v0.162h-8.78v-0.162c2.075,0,2.262-0.638,2.262-2.607V9.949c0-1.968-0.187-2.606-2.262-2.606V7.156
		z"/>
	<path fill="#4D44A5" d="M116.548,21.153h-0.187v-6.599h0.16c0.583,3.087,3.699,6.599,6.226,6.599c1.331,0,2.051-1.012,2.051-1.999
		c0-1.594-1.464-1.989-2.981-2.525l-0.693-0.238c-1.994-0.668-4.443-1.437-4.443-4.55c0-3.542,3.248-4.843,5.535-4.843
		c1.783,0,3.007,0.8,3.968,0.8c0.45,0,0.663-0.375,0.771-0.719h0.187v4.949h-0.162c-0.213-2.049-2.529-4.898-4.655-4.898
		c-1.488,0-1.862,1.305-1.862,2.024c0,0.982,0.688,1.756,2.976,2.444l0.775,0.243c1.836,0.557,4.311,1.093,4.311,4.524
		c0,3.113-2.606,4.975-5.455,4.975c-2.232,0-4.393-1.144-5.218-1.144C117.347,20.196,116.973,20.46,116.548,21.153"/>
	<path fill="#4D44A5" d="M131.516,17.029V7.343h-1.383V7.156c1.757-0.077,3.143-0.693,4.337-1.518
		c0.851-0.583,2.075-1.62,2.263-3.564h0.157v5.082h2.424v0.187h-2.424v10.431c0,2.287,0.11,2.5,0.612,2.5
		c0.212,0,0.663-0.077,1.063-1.063c0.243-0.583,0.455-1.94,0.455-3.22h0.187c0,0.826-0.104,1.676-0.267,2.475
		c-0.213,1.063-0.612,2.819-3.674,2.819C132.103,21.285,131.516,19.98,131.516,17.029"/>
	<path fill="#4D44A5" d="M148.193,6.998c3.963,0,7.316,3.194,7.316,7.157c0,3.967-3.354,7.16-7.316,7.16s-7.319-3.193-7.319-7.16
		C140.874,10.192,144.23,6.998,148.193,6.998 M149.948,10.243c0-2.211-0.667-3.062-1.755-3.062c-1.064,0-1.731,0.851-1.731,3.062
		v7.824c0,2.207,0.667,3.061,1.731,3.061c1.088,0,1.755-0.854,1.755-3.061V10.243z"/>
	<path fill="#4D44A5" d="M156.636,7.156h7.612v2.369c0.667-1.702,2.235-2.527,4.152-2.527c1.119,0,2.046,0.29,2.77,0.851
		c1.3,1.037,1.514,2.313,1.514,4.018v6.518c0,1.969,0.188,2.607,2.262,2.607v0.162h-8.755v-0.162c1.094,0,1.169-0.901,1.169-2.607
		v-7.101c0-2.691-0.501-3.197-1.275-3.197c-0.157,0-0.961,0.081-1.386,0.931c-0.289,0.587-0.45,1.013-0.45,3.168v6.199
		c0,1.706,0.08,2.607,1.174,2.607v0.162h-8.786v-0.162c2.075,0,2.262-0.638,2.262-2.607V9.949c0-1.968-0.187-2.606-2.262-2.606
		V7.156z"/>
	<path fill="#4FC3F7" d="M17.11,43.45c0,0.608-0.11,1.065-0.328,1.354c-0.217,0.297-0.561,0.584-1.035,0.86
		c-0.272,0.157-0.621,0.306-1.03,0.459c-0.418,0.146-0.869,0.273-1.362,0.384c-0.495,0.106-1.01,0.188-1.551,0.248
		c-0.545,0.059-1.082,0.092-1.61,0.092c-1.422,0-2.751-0.194-3.99-0.578c-1.239-0.383-2.321-0.963-3.232-1.741
		c-0.92-0.78-1.643-1.751-2.172-2.909C0.264,40.452,0,39.106,0,37.569c0-1.614,0.29-3.023,0.873-4.224
		c0.579-1.206,1.35-2.202,2.303-3.002c0.955-0.797,2.049-1.389,3.28-1.785s2.495-0.592,3.798-0.592c1.87,0,3.352,0.298,4.446,0.903
		c1.09,0.6,1.639,1.379,1.639,2.351c0,0.51-0.127,0.954-0.387,1.328c-0.256,0.375-0.549,0.669-0.885,0.886
		c-0.49-0.298-1.108-0.588-1.844-0.873c-0.738-0.285-1.572-0.43-2.501-0.43c-1.652,0-2.964,0.477-3.943,1.423
		c-0.971,0.94-1.46,2.252-1.46,3.925c0,0.908,0.132,1.691,0.399,2.351c0.265,0.66,0.627,1.202,1.078,1.623
		c0.452,0.426,0.976,0.737,1.567,0.95c0.588,0.204,1.219,0.306,1.891,0.306c0.435,0,0.817-0.037,1.15-0.119
		c0.336-0.076,0.592-0.166,0.766-0.264V39.55H9.01c-0.119-0.218-0.23-0.503-0.34-0.861c-0.106-0.353-0.162-0.724-0.162-1.12
		c0-0.711,0.162-1.222,0.49-1.537c0.323-0.315,0.745-0.473,1.256-0.473h4.991c0.592,0,1.048,0.162,1.375,0.49
		c0.324,0.324,0.49,0.783,0.49,1.371V43.45z"/>
	<path fill="#4FC3F7" d="M26.177,31.569c1.064,0,2.036,0.111,2.909,0.328c0.877,0.217,1.626,0.545,2.248,0.988
		c0.621,0.447,1.099,1.005,1.431,1.682c0.336,0.681,0.502,1.486,0.502,2.41v6.619c0,0.51-0.145,0.933-0.426,1.256
		c-0.289,0.328-0.625,0.608-1.022,0.843c-1.278,0.771-3.082,1.155-5.408,1.155c-1.039,0-1.985-0.104-2.819-0.299
		c-0.835-0.197-1.558-0.494-2.155-0.886c-0.604-0.392-1.065-0.896-1.388-1.508c-0.328-0.613-0.49-1.32-0.49-2.129
		c0-1.354,0.405-2.402,1.214-3.13c0.805-0.729,2.057-1.18,3.747-1.359l3.875-0.413v-0.208c0-0.571-0.255-0.98-0.757-1.227
		c-0.503-0.247-1.227-0.366-2.172-0.366c-0.75,0-1.474,0.077-2.18,0.234c-0.716,0.158-1.355,0.353-1.925,0.592
		c-0.256-0.179-0.473-0.451-0.648-0.813c-0.179-0.362-0.268-0.745-0.268-1.137c0-0.511,0.123-0.92,0.37-1.227
		c0.248-0.306,0.626-0.566,1.137-0.783c0.571-0.217,1.249-0.375,2.023-0.473C24.753,31.62,25.487,31.569,26.177,31.569
		 M26.411,43.182c0.336,0,0.707-0.033,1.107-0.103c0.409-0.067,0.707-0.161,0.903-0.28v-2.363l-2.125,0.179
		c-0.55,0.038-1.005,0.153-1.359,0.354c-0.358,0.194-0.532,0.488-0.532,0.885c0,0.396,0.15,0.711,0.456,0.957
		C25.167,43.059,25.687,43.182,26.411,43.182"/>
	<path fill="#4FC3F7" d="M43.224,31.569c0.809,0,1.601,0.115,2.384,0.34c0.775,0.23,1.448,0.567,2.018,1.023
		c0.597-0.396,1.262-0.72,1.994-0.98c0.741-0.256,1.635-0.383,2.674-0.383c0.749,0,1.482,0.102,2.206,0.298
		c0.716,0.196,1.354,0.507,1.917,0.929c0.561,0.425,1.014,0.987,1.345,1.686c0.333,0.698,0.503,1.549,0.503,2.555v9.309
		c-0.196,0.06-0.512,0.119-0.929,0.175c-0.425,0.06-0.869,0.09-1.32,0.09c-0.435,0-0.817-0.03-1.167-0.09
		c-0.34-0.056-0.63-0.175-0.869-0.353c-0.238-0.18-0.417-0.418-0.545-0.725s-0.195-0.707-0.195-1.197v-7.065
		c0-0.588-0.162-1.013-0.503-1.281c-0.332-0.269-0.784-0.4-1.354-0.4c-0.281,0-0.57,0.063-0.886,0.191
		c-0.315,0.128-0.553,0.264-0.715,0.4c0.025,0.077,0.034,0.154,0.034,0.222v0.192v9.84c-0.221,0.06-0.537,0.119-0.963,0.175
		c-0.425,0.06-0.851,0.09-1.286,0.09c-0.434,0-0.817-0.03-1.166-0.09c-0.341-0.056-0.631-0.175-0.869-0.353
		c-0.239-0.18-0.417-0.418-0.545-0.725s-0.197-0.707-0.197-1.197v-7.065c0-0.588-0.178-1.013-0.545-1.281
		c-0.365-0.269-0.8-0.4-1.311-0.4c-0.357,0-0.664,0.055-0.919,0.165c-0.256,0.103-0.478,0.209-0.648,0.307v10.374
		c-0.196,0.06-0.511,0.119-0.937,0.175c-0.417,0.06-0.86,0.09-1.311,0.09c-0.435,0-0.818-0.03-1.167-0.09
		c-0.35-0.056-0.639-0.175-0.869-0.353c-0.239-0.18-0.418-0.418-0.546-0.725c-0.135-0.307-0.195-0.707-0.195-1.197v-8.921
		c0-0.537,0.111-0.954,0.341-1.269c0.221-0.316,0.536-0.614,0.928-0.886c0.673-0.477,1.499-0.86,2.496-1.158
		C41.103,31.718,42.142,31.569,43.224,31.569"/>
	<path fill="#4FC3F7" d="M68.928,46.848c-1.158,0-2.24-0.166-3.237-0.488c-0.987-0.328-1.856-0.813-2.597-1.461
		c-0.741-0.652-1.32-1.471-1.746-2.453c-0.417-0.988-0.63-2.139-0.63-3.458c0-1.303,0.213-2.419,0.63-3.356
		c0.426-0.932,0.98-1.703,1.669-2.299c0.689-0.605,1.482-1.048,2.368-1.333c0.886-0.285,1.788-0.43,2.717-0.43
		c1.048,0,1.993,0.161,2.853,0.477c0.852,0.315,1.592,0.745,2.214,1.298c0.622,0.55,1.108,1.214,1.448,1.981
		c0.34,0.766,0.52,1.601,0.52,2.513c0,0.664-0.187,1.179-0.562,1.532c-0.375,0.354-0.895,0.579-1.567,0.681l-7.3,1.092
		c0.222,0.652,0.665,1.141,1.33,1.465c0.672,0.322,1.439,0.484,2.308,0.484c0.809,0,1.566-0.102,2.291-0.306
		c0.715-0.209,1.302-0.45,1.754-0.724c0.315,0.195,0.579,0.468,0.8,0.826c0.214,0.353,0.324,0.728,0.324,1.123
		c0,0.887-0.417,1.541-1.243,1.977c-0.63,0.337-1.337,0.563-2.13,0.682C70.358,46.789,69.618,46.848,68.928,46.848 M68.102,35.235
		c-0.468,0-0.877,0.081-1.227,0.234c-0.34,0.162-0.621,0.363-0.842,0.605c-0.214,0.247-0.376,0.524-0.486,0.827
		c-0.111,0.306-0.17,0.621-0.196,0.937l5.059-0.832c-0.059-0.395-0.282-0.787-0.656-1.179
		C69.379,35.431,68.833,35.235,68.102,35.235"/>
	<path fill="#4FC3F7" d="M87.103,28.469c0.213-0.042,0.562-0.093,1.031-0.162c0.477-0.067,0.928-0.102,1.363-0.102
		c0.451,0,0.851,0.035,1.192,0.102c0.349,0.069,0.639,0.192,0.868,0.367c0.238,0.178,0.417,0.425,0.536,0.74
		c0.119,0.316,0.18,0.733,0.18,1.243v10.928c0,1.755-0.502,3.071-1.509,3.948c-1.004,0.873-2.487,1.315-4.437,1.315
		c-1.021,0-1.848-0.162-2.478-0.478c-0.451-0.213-0.784-0.51-0.988-0.885c-0.204-0.375-0.315-0.797-0.315-1.27
		c0-0.393,0.059-0.741,0.161-1.035c0.112-0.294,0.248-0.531,0.401-0.711c0.374,0.081,0.698,0.137,0.962,0.162
		c0.264,0.033,0.554,0.047,0.869,0.047c0.775,0,1.32-0.191,1.661-0.575c0.332-0.383,0.502-0.954,0.502-1.698V28.469z"/>
	<path fill="#4FC3F7" d="M101.547,31.569c1.065,0,2.035,0.111,2.913,0.328c0.877,0.217,1.618,0.545,2.24,0.988
		c0.622,0.447,1.099,1.005,1.439,1.682c0.332,0.681,0.494,1.486,0.494,2.41v6.619c0,0.51-0.137,0.933-0.427,1.256
		c-0.28,0.328-0.622,0.608-1.021,0.843c-1.277,0.771-3.074,1.155-5.4,1.155c-1.047,0-1.984-0.104-2.827-0.299
		c-0.835-0.197-1.55-0.494-2.155-0.886c-0.596-0.392-1.063-0.896-1.388-1.508c-0.324-0.613-0.486-1.32-0.486-2.129
		c0-1.354,0.4-2.402,1.209-3.13c0.811-0.729,2.063-1.18,3.758-1.359l3.866-0.413v-0.208c0-0.571-0.247-0.98-0.75-1.227
		c-0.502-0.247-1.227-0.366-2.172-0.366c-0.749,0-1.48,0.077-2.188,0.234c-0.708,0.158-1.355,0.353-1.926,0.592
		c-0.256-0.179-0.469-0.451-0.647-0.813c-0.178-0.362-0.264-0.745-0.264-1.137c0-0.511,0.12-0.92,0.366-1.227
		c0.246-0.306,0.63-0.566,1.142-0.783c0.57-0.217,1.243-0.375,2.018-0.473C100.125,31.62,100.858,31.569,101.547,31.569
		 M101.786,43.182c0.333,0,0.699-0.033,1.108-0.103c0.399-0.067,0.697-0.161,0.902-0.28v-2.363l-2.13,0.179
		c-0.553,0.038-1.005,0.153-1.363,0.354c-0.349,0.194-0.526,0.488-0.526,0.885c0,0.396,0.152,0.711,0.459,0.957
		C100.535,43.059,101.053,43.182,101.786,43.182"/>
	<path fill="#4FC3F7" d="M118.591,31.569c0.809,0,1.601,0.115,2.385,0.34c0.773,0.23,1.447,0.567,2.018,1.023
		c0.597-0.396,1.26-0.72,2.001-0.98c0.732-0.256,1.627-0.383,2.666-0.383c0.75,0,1.491,0.102,2.206,0.298
		c0.715,0.196,1.354,0.507,1.916,0.929c0.563,0.425,1.014,0.987,1.346,1.686c0.342,0.698,0.502,1.549,0.502,2.555v9.309
		c-0.195,0.06-0.502,0.119-0.928,0.175c-0.426,0.06-0.86,0.09-1.311,0.09c-0.436,0-0.827-0.03-1.167-0.09
		c-0.35-0.056-0.64-0.175-0.877-0.353c-0.239-0.18-0.418-0.418-0.545-0.725c-0.128-0.307-0.196-0.707-0.196-1.197v-7.065
		c0-0.588-0.162-1.013-0.495-1.281c-0.34-0.269-0.792-0.4-1.363-0.4c-0.271,0-0.569,0.063-0.885,0.191
		c-0.314,0.128-0.554,0.264-0.707,0.4c0.018,0.077,0.025,0.154,0.025,0.222v0.192v9.84c-0.212,0.06-0.536,0.119-0.962,0.175
		c-0.417,0.06-0.853,0.09-1.286,0.09c-0.436,0-0.818-0.03-1.167-0.09c-0.341-0.056-0.63-0.175-0.869-0.353
		c-0.238-0.18-0.417-0.418-0.545-0.725c-0.127-0.307-0.195-0.707-0.195-1.197v-7.065c0-0.588-0.179-1.013-0.545-1.281
		c-0.367-0.269-0.801-0.4-1.312-0.4c-0.358,0-0.665,0.055-0.921,0.165c-0.256,0.103-0.468,0.209-0.646,0.307v10.374
		c-0.197,0.06-0.511,0.119-0.929,0.175c-0.427,0.06-0.868,0.09-1.32,0.09c-0.434,0-0.818-0.03-1.166-0.09
		c-0.341-0.056-0.631-0.175-0.869-0.353c-0.238-0.18-0.418-0.418-0.545-0.725c-0.128-0.307-0.196-0.707-0.196-1.197v-8.921
		c0-0.537,0.111-0.954,0.341-1.269c0.229-0.316,0.536-0.614,0.929-0.886c0.673-0.477,1.507-0.86,2.495-1.158
		C116.469,31.718,117.509,31.569,118.591,31.569"/>
	<path fill="#4FC3F7" d="M148.817,42.088c0,1.498-0.563,2.674-1.687,3.518c-1.115,0.848-2.776,1.27-4.956,1.27
		c-0.826,0-1.603-0.061-2.31-0.18c-0.706-0.115-1.311-0.298-1.813-0.545c-0.503-0.247-0.903-0.555-1.186-0.93
		c-0.289-0.373-0.425-0.816-0.425-1.327c0-0.478,0.094-0.873,0.29-1.201c0.196-0.323,0.434-0.592,0.715-0.81
		c0.571,0.315,1.227,0.597,1.959,0.844c0.741,0.247,1.592,0.365,2.556,0.365c0.612,0,1.081-0.084,1.404-0.264
		c0.324-0.179,0.486-0.412,0.486-0.705c0-0.283-0.111-0.494-0.35-0.658c-0.238-0.152-0.631-0.279-1.185-0.383l-0.885-0.174
		c-1.712-0.337-2.99-0.865-3.824-1.58c-0.843-0.72-1.26-1.746-1.26-3.092c0-0.724,0.161-1.388,0.476-1.976
		c0.315-0.592,0.758-1.082,1.328-1.478c0.572-0.396,1.253-0.698,2.054-0.915c0.801-0.218,1.679-0.324,2.649-0.324
		c0.723,0,1.404,0.051,2.052,0.162c0.638,0.106,1.192,0.268,1.669,0.486c0.469,0.216,0.843,0.498,1.115,0.843
		c0.282,0.345,0.418,0.754,0.418,1.226c0,0.452-0.085,0.843-0.255,1.167c-0.163,0.324-0.375,0.596-0.631,0.809
		c-0.162-0.094-0.392-0.196-0.707-0.307c-0.314-0.111-0.663-0.209-1.038-0.298c-0.375-0.085-0.75-0.162-1.133-0.221
		c-0.384-0.06-0.741-0.085-1.057-0.085c-0.647,0-1.149,0.072-1.499,0.221c-0.357,0.145-0.536,0.379-0.536,0.69
		c0,0.221,0.102,0.396,0.298,0.537c0.195,0.136,0.57,0.264,1.124,0.383l0.911,0.204c1.892,0.435,3.236,1.031,4.037,1.789
		C148.417,39.907,148.817,40.887,148.817,42.088"/>
	<path fill="#4FC3F7" d="M169.734,35.206c0.376-0.158,0.725-0.272,1.057-0.341c0.324-0.068,0.647-0.102,0.988-0.102
		c0.469,0,0.853,0.068,1.15,0.204c0.298,0.136,0.527,0.333,0.697,0.579c0.163,0.248,0.281,0.537,0.333,0.869
		c0.067,0.336,0.094,0.699,0.094,1.094c0,1.597-0.408,3.113-1.21,4.553l2.274,2.185c-0.043,0.745-0.298,1.358-0.766,1.831
		c-0.479,0.473-1.04,0.711-1.688,0.711c-0.792,0-1.559-0.375-2.309-1.124l-0.561-0.532c-0.726,0.532-1.56,0.949-2.496,1.256
		c-0.938,0.307-1.977,0.461-3.117,0.461c-1.158,0-2.181-0.154-3.066-0.461c-0.894-0.307-1.636-0.724-2.249-1.256
		c-0.612-0.533-1.072-1.154-1.388-1.879c-0.314-0.715-0.478-1.499-0.478-2.346c0-0.729,0.11-1.38,0.324-1.951
		c0.222-0.57,0.502-1.073,0.86-1.507c0.358-0.43,0.75-0.801,1.183-1.107c0.436-0.303,0.878-0.558,1.329-0.754
		c-0.391-0.473-0.672-0.975-0.843-1.508c-0.17-0.527-0.247-1.03-0.247-1.507c0-0.609,0.128-1.18,0.383-1.712
		c0.256-0.532,0.622-0.996,1.09-1.388c0.47-0.392,1.049-0.699,1.73-0.916c0.681-0.217,1.448-0.328,2.315-0.328
		c1.244,0,2.121,0.222,2.633,0.664c0.511,0.443,0.766,1.014,0.766,1.704c0,0.332-0.059,0.656-0.187,0.971
		c-0.129,0.315-0.324,0.605-0.579,0.86c-0.213-0.102-0.469-0.178-0.75-0.238c-0.289-0.06-0.587-0.086-0.903-0.086
		c-0.511,0-0.937,0.077-1.269,0.235c-0.341,0.157-0.503,0.443-0.503,0.856c0,0.298,0.129,0.596,0.385,0.903
		c0.255,0.306,0.57,0.647,0.945,1.017l3.78,3.667c0.094-0.434,0.171-0.945,0.221-1.542
		C169.708,36.653,169.734,35.972,169.734,35.206 M161.729,40.58c0,0.689,0.229,1.27,0.698,1.729c0.46,0.465,1.149,0.699,2.052,0.699
		c0.393,0,0.811-0.06,1.244-0.162c0.435-0.11,0.844-0.293,1.235-0.55l-3.781-3.811c-0.47,0.217-0.826,0.511-1.073,0.886
		S161.729,40.15,161.729,40.58"/>
	<path fill="#4FC3F7" d="M6.055,71.77c-0.213,0.055-0.554,0.114-1.018,0.175c-0.464,0.055-0.92,0.089-1.375,0.089
		c-0.452,0-0.853-0.034-1.193-0.102c-0.349-0.068-0.638-0.196-0.873-0.375c-0.234-0.175-0.413-0.417-0.532-0.737
		c-0.12-0.314-0.179-0.728-0.179-1.239V55.664c0-0.414,0.115-0.732,0.34-0.963c0.226-0.221,0.537-0.409,0.929-0.545
		c0.673-0.238,1.435-0.409,2.291-0.52c0.86-0.106,1.72-0.162,2.589-0.162c2.717,0,4.796,0.584,6.235,1.746
		c1.434,1.162,2.155,2.738,2.155,4.728c0,0.962-0.154,1.839-0.46,2.614c-0.307,0.779-0.758,1.447-1.359,2.01
		c-0.6,0.562-1.358,0.997-2.274,1.299c-0.915,0.306-1.976,0.456-3.177,0.456H6.055V71.77z M7.592,62.281
		c0.831,0,1.465-0.191,1.904-0.575c0.447-0.387,0.668-0.971,0.668-1.758c0-0.75-0.234-1.325-0.694-1.729
		c-0.464-0.4-1.137-0.604-2.027-0.604c-0.314,0-0.575,0.004-0.783,0.017c-0.205,0.008-0.418,0.034-0.63,0.072v4.578H7.592z"/>
	<path fill="#4FC3F7" d="M32.087,64.704c0,1.223-0.187,2.313-0.562,3.267c-0.375,0.954-0.899,1.755-1.579,2.406
		c-0.682,0.651-1.491,1.146-2.437,1.478c-0.946,0.332-2.002,0.503-3.163,0.503c-1.164,0-2.215-0.18-3.165-0.532
		c-0.941-0.354-1.754-0.865-2.436-1.521c-0.681-0.665-1.205-1.466-1.58-2.41c-0.374-0.945-0.558-2.011-0.558-3.19
		c0-1.162,0.184-2.219,0.558-3.164c0.375-0.944,0.899-1.746,1.58-2.405c0.682-0.66,1.495-1.166,2.436-1.521
		c0.95-0.358,2.001-0.533,3.165-0.533c1.161,0,2.217,0.185,3.163,0.55c0.946,0.362,1.755,0.873,2.437,1.533
		c0.68,0.66,1.204,1.465,1.579,2.41S32.087,63.563,32.087,64.704 M21.743,64.704c0,1.206,0.23,2.125,0.698,2.764
		c0.46,0.64,1.108,0.963,1.934,0.963c0.826,0,1.465-0.328,1.908-0.979c0.442-0.647,0.665-1.567,0.665-2.747
		c0-1.179-0.231-2.091-0.683-2.729c-0.45-0.643-1.089-0.963-1.919-0.963c-0.827,0-1.47,0.32-1.921,0.963
		C21.973,62.613,21.743,63.525,21.743,64.704"/>
	<path fill="#4FC3F7" d="M42.134,72.356c-1.168,0-2.241-0.161-3.237-0.485c-0.997-0.327-1.858-0.817-2.598-1.465
		c-0.742-0.646-1.321-1.465-1.746-2.453c-0.426-0.983-0.635-2.138-0.635-3.458c0-1.294,0.209-2.419,0.635-3.351
		c0.425-0.934,0.979-1.703,1.669-2.305c0.69-0.6,1.482-1.047,2.368-1.328c0.886-0.289,1.789-0.43,2.717-0.43
		c1.039,0,1.993,0.158,2.845,0.473c0.86,0.316,1.601,0.749,2.223,1.303c0.621,0.551,1.098,1.21,1.447,1.977
		c0.341,0.767,0.511,1.604,0.511,2.512c0,0.669-0.187,1.184-0.554,1.533c-0.374,0.357-0.902,0.584-1.566,0.682l-7.3,1.094
		c0.214,0.652,0.656,1.138,1.329,1.461c0.673,0.324,1.44,0.49,2.3,0.49c0.808,0,1.576-0.107,2.291-0.311
		c0.724-0.205,1.311-0.447,1.763-0.725c0.315,0.196,0.579,0.473,0.793,0.826c0.221,0.357,0.331,0.732,0.331,1.124
		c0,0.886-0.417,1.546-1.244,1.98c-0.629,0.337-1.336,0.559-2.128,0.678C43.564,72.298,42.823,72.356,42.134,72.356 M41.307,60.748
		c-0.477,0-0.886,0.078-1.227,0.23c-0.349,0.162-0.63,0.366-0.843,0.609c-0.221,0.246-0.383,0.523-0.486,0.826
		c-0.11,0.306-0.178,0.616-0.195,0.932l5.051-0.826c-0.06-0.396-0.273-0.792-0.648-1.184S42.031,60.748,41.307,60.748"/>
	<path fill="#4FC3F7" d="M55.786,66.948c0,0.512,0.162,0.878,0.485,1.095c0.324,0.218,0.784,0.324,1.371,0.324
		c0.299,0,0.605-0.022,0.92-0.072c0.315-0.052,0.587-0.111,0.826-0.192c0.179,0.218,0.324,0.456,0.46,0.725
		c0.128,0.268,0.188,0.583,0.188,0.958c0,0.749-0.281,1.362-0.844,1.83c-0.561,0.478-1.55,0.712-2.964,0.712
		c-1.737,0-3.074-0.396-4.011-1.18c-0.929-0.792-1.397-2.069-1.397-3.841V54.658c0.213-0.06,0.529-0.123,0.929-0.191
		s0.834-0.105,1.286-0.105c0.868,0,1.542,0.152,2.026,0.459c0.477,0.307,0.725,0.955,0.725,1.934v1.896h3.867
		c0.118,0.215,0.23,0.484,0.34,0.813c0.111,0.322,0.162,0.681,0.162,1.076c0,0.69-0.153,1.188-0.46,1.492
		c-0.307,0.306-0.715,0.455-1.226,0.455h-2.683V66.948z"/>
	<path fill="#4FC3F7" d="M67.599,71.854c-0.196,0.06-0.502,0.119-0.928,0.179c-0.426,0.06-0.861,0.085-1.312,0.085
		c-0.434,0-0.826-0.025-1.166-0.085c-0.35-0.06-0.639-0.179-0.878-0.357c-0.23-0.175-0.417-0.417-0.545-0.724
		c-0.128-0.303-0.188-0.702-0.188-1.192v-8.866c0-0.452,0.077-0.845,0.248-1.167c0.17-0.324,0.408-0.613,0.724-0.869
		c0.315-0.26,0.707-0.494,1.166-0.697c0.461-0.205,0.963-0.389,1.491-0.545c0.536-0.158,1.081-0.281,1.653-0.367
		c0.579-0.095,1.149-0.137,1.719-0.137c0.946,0,1.696,0.184,2.241,0.545c0.553,0.366,0.826,0.963,0.826,1.789
		c0,0.276-0.034,0.545-0.11,0.813c-0.086,0.269-0.18,0.508-0.299,0.721c-0.417,0-0.834,0.025-1.269,0.063
		c-0.435,0.039-0.86,0.1-1.269,0.176c-0.417,0.08-0.809,0.162-1.167,0.256c-0.366,0.085-0.681,0.188-0.937,0.307V71.854z"/>
	<path fill="#4FC3F7" d="M77.437,68.223c-0.214-0.494-0.443-1.043-0.691-1.657c-0.246-0.609-0.502-1.312-0.766-2.095
		c-0.272-0.793-0.545-1.691-0.834-2.705c-0.281-1.018-0.58-2.185-0.895-3.504c0.273-0.272,0.639-0.516,1.107-0.725
		c0.46-0.204,0.971-0.307,1.517-0.307c0.69,0,1.26,0.141,1.72,0.427c0.451,0.289,0.783,0.826,1.005,1.608l2.333,8.126h0.12
		c0.23-0.664,0.459-1.397,0.689-2.185c0.231-0.788,0.452-1.597,0.665-2.441c0.213-0.834,0.418-1.668,0.605-2.506
		c0.187-0.84,0.349-1.662,0.485-2.467c0.715-0.375,1.49-0.563,2.335-0.563c0.689,0,1.259,0.145,1.719,0.443
		c0.452,0.295,0.673,0.81,0.673,1.533c0,0.536-0.068,1.149-0.204,1.848c-0.136,0.699-0.316,1.443-0.545,2.231
		c-0.23,0.788-0.494,1.603-0.801,2.437c-0.306,0.839-0.622,1.66-0.954,2.47c-0.341,0.809-0.681,1.566-1.039,2.291
		c-0.349,0.716-0.698,1.363-1.03,1.933c-0.554,0.963-1.065,1.755-1.542,2.364c-0.469,0.609-0.92,1.086-1.354,1.435
		c-0.435,0.341-0.869,0.579-1.304,0.707c-0.434,0.128-0.885,0.192-1.354,0.192c-0.834,0-1.498-0.247-2.01-0.737
		c-0.51-0.494-0.817-1.133-0.92-1.925c0.63-0.49,1.261-1.039,1.892-1.635c0.63-0.605,1.2-1.219,1.711-1.849
		c-0.332-0.102-0.689-0.331-1.073-0.694C78.313,69.912,77.888,69.223,77.437,68.223"/>
	<path fill="#4FC3F7" d="M102.85,64.764c-0.868-0.293-1.659-0.596-2.366-0.898c-0.707-0.307-1.321-0.677-1.831-1.111
		c-0.512-0.43-0.912-0.949-1.194-1.551c-0.289-0.6-0.433-1.332-0.433-2.201c0-1.674,0.646-3.014,1.941-4.02
		c1.286-1.006,3.091-1.508,5.417-1.508c0.852,0,1.636,0.061,2.367,0.18c0.724,0.119,1.354,0.301,1.874,0.545
		c0.52,0.246,0.928,0.562,1.226,0.945c0.3,0.383,0.443,0.834,0.443,1.346c0,0.51-0.119,0.953-0.357,1.315s-0.521,0.677-0.852,0.933
		c-0.435-0.281-1.014-0.52-1.746-0.724c-0.731-0.209-1.524-0.312-2.394-0.312c-0.885,0-1.533,0.123-1.95,0.371
		c-0.417,0.246-0.622,0.554-0.622,0.928c0,0.299,0.128,0.537,0.383,0.725c0.256,0.188,0.64,0.357,1.159,0.52l1.559,0.502
		c1.856,0.588,3.278,1.342,4.275,2.258c0.988,0.915,1.491,2.163,1.491,3.738c0,1.674-0.664,3.027-1.978,4.063
		c-1.319,1.031-3.262,1.55-5.824,1.55c-0.903,0-1.746-0.076-2.521-0.221c-0.784-0.149-1.465-0.366-2.045-0.652
		c-0.579-0.285-1.029-0.638-1.354-1.06c-0.331-0.426-0.493-0.911-0.493-1.465c0-0.57,0.17-1.057,0.502-1.465
		c0.341-0.4,0.697-0.711,1.099-0.929c0.545,0.435,1.227,0.81,2.019,1.124c0.801,0.315,1.67,0.47,2.615,0.47
		c0.971,0,1.644-0.146,2.043-0.439c0.393-0.294,0.588-0.643,0.588-1.035c0-0.392-0.152-0.694-0.469-0.903
		c-0.323-0.203-0.766-0.408-1.337-0.604L102.85,64.764z"/>
	<path fill="#4FC3F7" d="M118.769,71.854c-0.212,0.038-0.537,0.094-0.954,0.162c-0.425,0.067-0.851,0.102-1.286,0.102
		c-0.434,0-0.826-0.025-1.167-0.085c-0.348-0.06-0.638-0.179-0.877-0.357c-0.229-0.175-0.417-0.417-0.545-0.724
		c-0.129-0.303-0.188-0.702-0.188-1.192V52.623c0.214-0.043,0.538-0.094,0.955-0.166c0.426-0.068,0.852-0.103,1.284-0.103
		c0.436,0,0.826,0.03,1.168,0.09c0.35,0.06,0.639,0.179,0.877,0.353c0.23,0.176,0.417,0.423,0.546,0.725
		c0.128,0.303,0.187,0.703,0.187,1.197V71.854z"/>
	<path fill="#4FC3F7" d="M127.839,57.082c1.064,0,2.036,0.106,2.913,0.327c0.878,0.213,1.627,0.545,2.249,0.988
		c0.622,0.442,1.098,1.005,1.431,1.687c0.332,0.678,0.502,1.482,0.502,2.401v6.622c0,0.511-0.144,0.933-0.425,1.257
		c-0.29,0.323-0.631,0.604-1.023,0.843c-1.276,0.767-3.083,1.15-5.407,1.15c-1.039,0-1.984-0.099-2.819-0.298
		c-0.843-0.196-1.559-0.49-2.155-0.887c-0.604-0.392-1.064-0.895-1.387-1.507c-0.333-0.609-0.495-1.32-0.495-2.125
		c0-1.358,0.409-2.402,1.218-3.131c0.8-0.732,2.052-1.184,3.747-1.361l3.875-0.41V62.43c0-0.569-0.255-0.979-0.757-1.226
		s-1.227-0.37-2.172-0.37c-0.749,0-1.475,0.076-2.189,0.237c-0.707,0.158-1.346,0.354-1.916,0.588
		c-0.256-0.179-0.477-0.446-0.647-0.81c-0.178-0.365-0.273-0.744-0.273-1.141c0-0.511,0.128-0.92,0.375-1.226
		c0.247-0.304,0.622-0.562,1.134-0.78c0.57-0.217,1.252-0.375,2.026-0.473C126.417,57.133,127.15,57.082,127.839,57.082
		 M128.079,68.694c0.333,0,0.706-0.034,1.106-0.102c0.409-0.068,0.707-0.162,0.903-0.281v-2.367l-2.129,0.178
		c-0.546,0.043-1.005,0.158-1.355,0.358c-0.356,0.195-0.536,0.489-0.536,0.886c0,0.391,0.154,0.711,0.46,0.958
		C126.835,68.571,127.346,68.694,128.079,68.694"/>
	<path fill="#4FC3F7" d="M144.891,57.082c0.81,0,1.601,0.114,2.376,0.34c0.783,0.227,1.457,0.566,2.026,1.018
		c0.588-0.391,1.252-0.715,1.993-0.975c0.741-0.256,1.627-0.383,2.674-0.383c0.75,0,1.483,0.098,2.198,0.293
		c0.724,0.196,1.363,0.512,1.924,0.934c0.563,0.421,1.006,0.982,1.347,1.682c0.332,0.698,0.503,1.551,0.503,2.555v9.31
		c-0.205,0.06-0.512,0.119-0.938,0.179c-0.416,0.06-0.86,0.085-1.311,0.085c-0.436,0-0.827-0.025-1.167-0.085
		c-0.342-0.06-0.64-0.179-0.869-0.357c-0.238-0.175-0.417-0.417-0.555-0.724c-0.127-0.303-0.187-0.704-0.187-1.192v-7.061
		c0-0.597-0.17-1.022-0.502-1.285c-0.333-0.27-0.793-0.401-1.363-0.401c-0.272,0-0.57,0.059-0.885,0.192
		c-0.316,0.127-0.546,0.258-0.707,0.396c0.016,0.081,0.033,0.153,0.033,0.221v0.196v9.837c-0.222,0.06-0.545,0.119-0.962,0.179
		c-0.427,0.06-0.853,0.085-1.286,0.085c-0.435,0-0.826-0.025-1.167-0.085c-0.35-0.06-0.64-0.179-0.869-0.357
		c-0.238-0.175-0.425-0.417-0.554-0.724c-0.128-0.303-0.188-0.704-0.188-1.192v-7.061c0-0.597-0.187-1.022-0.545-1.285
		c-0.366-0.27-0.809-0.401-1.32-0.401c-0.349,0-0.655,0.051-0.911,0.161c-0.256,0.111-0.477,0.214-0.655,0.307v10.374
		c-0.196,0.06-0.503,0.119-0.929,0.179s-0.859,0.085-1.311,0.085c-0.435,0-0.827-0.025-1.167-0.085
		c-0.35-0.06-0.64-0.179-0.878-0.357c-0.23-0.175-0.417-0.417-0.545-0.724c-0.128-0.303-0.188-0.704-0.188-1.192v-8.926
		c0-0.532,0.111-0.955,0.342-1.27c0.222-0.314,0.535-0.613,0.928-0.886c0.673-0.476,1.5-0.86,2.496-1.154
		S143.809,57.082,144.891,57.082"/>
	<path fill="#4FC3F7" d="M175.118,67.601c0,1.494-0.563,2.67-1.688,3.513c-1.123,0.852-2.774,1.273-4.965,1.273
		c-0.825,0-1.592-0.06-2.3-0.179c-0.706-0.115-1.319-0.303-1.822-0.545c-0.502-0.247-0.894-0.559-1.175-0.933
		c-0.29-0.375-0.435-0.817-0.435-1.329c0-0.473,0.102-0.869,0.298-1.196c0.196-0.323,0.434-0.592,0.707-0.813
		c0.571,0.315,1.227,0.596,1.968,0.843s1.593,0.371,2.555,0.371c0.613,0,1.081-0.089,1.405-0.269
		c0.324-0.179,0.485-0.408,0.485-0.707c0-0.277-0.118-0.493-0.357-0.651c-0.229-0.157-0.63-0.286-1.176-0.383l-0.885-0.175
		c-1.721-0.337-2.99-0.864-3.833-1.584c-0.835-0.715-1.252-1.746-1.252-3.089c0-0.728,0.152-1.387,0.469-1.979
		c0.314-0.587,0.758-1.081,1.336-1.474c0.571-0.396,1.253-0.697,2.053-0.92c0.793-0.213,1.679-0.322,2.641-0.322
		c0.731,0,1.414,0.055,2.054,0.16c0.638,0.111,1.2,0.273,1.668,0.49c0.477,0.217,0.852,0.5,1.124,0.84
		c0.273,0.349,0.418,0.758,0.418,1.226c0,0.456-0.085,0.845-0.255,1.167c-0.171,0.328-0.375,0.596-0.631,0.813
		c-0.161-0.097-0.4-0.199-0.715-0.31c-0.316-0.106-0.656-0.205-1.03-0.294c-0.375-0.09-0.759-0.166-1.143-0.222
		c-0.383-0.06-0.731-0.089-1.048-0.089c-0.646,0-1.149,0.076-1.507,0.221c-0.349,0.15-0.528,0.384-0.528,0.693
		c0,0.219,0.095,0.396,0.29,0.533c0.204,0.137,0.57,0.264,1.124,0.383l0.92,0.209c1.892,0.431,3.236,1.026,4.028,1.784
		C174.717,65.416,175.118,66.399,175.118,67.601"/>
</g>
</svg>
