<?xml version="1.0" encoding="utf-8"?>
<!-- Generator: Adobe Illustrator 16.0.0, SVG Export Plug-In . SVG Version: 6.00 Build 0)  -->
<!DOCTYPE svg PUBLIC "-//W3C//DTD SVG 1.1//EN" "http://www.w3.org/Graphics/SVG/1.1/DTD/svg11.dtd">
<svg version="1.1" id="Layer_1" xmlns="http://www.w3.org/2000/svg" xmlns:xlink="http://www.w3.org/1999/xlink" x="0px" y="0px"
	 width="200px" height="200px" viewBox="0 0 200 200" enable-background="new 0 0 200 200" xml:space="preserve">
<g>
	<path fill="#4D44A5" d="M11.075,57.558h-0.161v-9.206h0.161c0,2.658,1.353,5.243,3.24,6.97c1.497,1.382,3.33,2.236,5.112,2.236
		c2.772,0,3.486-2.262,3.486-3.674c0-2.793-2.849-3.563-4.575-4.043l-1.548-0.426c-2.815-0.774-6.037-2.317-6.037-6.148
		c0-1.012,0.267-2.075,0.799-3.006c1.011-1.786,4.311-3.776,7.185-3.776c1.251,0,2.05,0.234,2.713,0.502
		c0.8,0.319,1.438,0.637,2.475,0.637c0.825,0,1.65-0.131,1.726-1.194h0.188v7.636h-0.158c0-1.65-0.505-3.193-2.207-5.242
		c-1.331-1.625-3.036-2.156-4.473-2.156c-1.114,0-1.939,0.267-2.713,1.386c-0.293,0.45-0.425,1.118-0.425,1.727
		c0,3.167,3.164,3.728,4.176,3.966l1.25,0.293c1.599,0.371,6.522,1.276,6.522,6.438c0,1.676-0.611,3.487-2.13,4.924
		c-1.833,1.752-3.355,2.368-5.774,2.368c-3.143,0-5.932-1.437-7.318-1.437C11.926,56.333,11.34,56.597,11.075,57.558"/>
	<path fill="#4D44A5" d="M43.042,55.882c0,0.425,0,1.169,0.425,1.169c0.37,0,1.276-0.769,1.352-3.593h0.188
		c0,0.638-0.162,3.168-1.382,3.806c-0.613,0.344-1.408,0.506-2.156,0.506c-0.531,0-1.012-0.081-1.412-0.243
		c-1.488-0.582-1.938-1.194-2.363-2.768c-0.562,1.761-1.361,2.475-2.106,2.768c-0.399,0.162-0.88,0.187-1.462,0.187
		c-2.263,0-4.58-0.637-4.58-3.537c0-0.43,0.081-0.85,0.187-1.225c0.587-1.888,1.786-2.075,3.619-2.394l0.642-0.106
		c3.538-0.587,3.7-2.424,3.7-3.993c0-2.581-0.911-2.793-1.919-2.793c-0.557,0-2.206,0.081-2.742,1.386
		c0.161-0.081,0.374-0.106,0.586-0.106c0.957,0,2.237,0.714,2.237,2.206c0,1.595-1.386,2.607-2.687,2.607
		c-1.306,0-2.585-1.037-2.585-2.662c0-2.207,2.768-3.67,6.097-3.67c1.624,0,3.35,0.345,4.524,1.17
		c1.752,1.225,1.837,2.819,1.837,4.337V55.882z M34.819,52.396c-0.085,0.527-0.111,0.982-0.111,1.407
		c0,0.617,0.056,1.174,0.111,1.812c0.025,0.531,0.077,1.539,0.74,1.539c0.187,0,0.399-0.047,0.535-0.183
		c1.514-0.982,1.57-3.35,1.57-5.374v-3.432c-0.107,0.638-0.532,1.088-0.796,1.276C35.133,50.715,35.006,50.902,34.819,52.396"/>
	<path fill="#4D44A5" d="M53.187,54.815c0,1.731,0.107,2.606,1.174,2.606v0.162h-8.759v-0.162c2.075,0,2.262-0.637,2.262-2.606
		v-8.517c0-1.964-0.187-2.525-2.262-2.525v-0.187h7.585v2.368c0.932-2.156,2.688-2.526,4.048-2.526c0.902,0,2.688,0.158,3.538,1.276
		c0.132,0.212,0.425,0.531,0.587,0.905c0.45-1.092,1.676-2.181,3.937-2.181c3.35,0,4.627,1.833,4.627,4.868v6.519
		c0,1.969,0.187,2.606,2.261,2.606v0.162h-8.75v-0.162c1.063,0,1.169-0.875,1.169-2.606v-7.101c0-2.266-0.293-3.278-1.492-3.278
		c-0.183,0-0.345,0.025-0.502,0.106c-0.723,0.349-1.038,0.825-1.038,2.16v8.113c0,1.731,0.103,2.606,1.17,2.606v0.162H55.05v-0.162
		c1.067,0,1.173-0.875,1.173-2.606v-6.787c0-2.767-0.323-3.405-1.305-3.405c-0.744,0-1.331,0.825-1.544,1.543
		c-0.187,0.613-0.187,1.412-0.187,2.449V54.815z"/>
	<path fill="#4D44A5" d="M77.667,36.905v-0.157h18.041v7.981h-0.162c0-2.232-0.876-4.762-3.401-6.57
		c-1.498-1.042-2.773-1.254-5.192-1.254v9.504c2.529,0,3.856-0.825,4.707-3.062c0.085-0.238,0.298-1.199,0.298-2.075h0.157v10.486
		h-0.157c0-0.855-0.213-1.837-0.298-2.054c-0.851-2.258-2.178-3.113-4.707-3.113v7.748c0,2.287,0.187,3.082,3.006,3.082h0.162v0.162
		H77.667v-0.162h0.183c2.822,0,2.984-0.795,2.984-3.082V39.996c0-2.292-0.162-3.091-2.984-3.091H77.667z"/>
	<path fill="#4D44A5" d="M107.158,57.583h-9.873v-0.161c2.075,0,2.262-0.638,2.262-2.607v-8.517c0-1.964-0.187-2.525-2.262-2.525
		v-0.187h7.637v11.229c0,1.969,0.161,2.607,2.235,2.607V57.583z M101.997,37.416c1.595,0,2.926,1.165,2.926,2.581
		c0,1.408-1.331,2.581-2.926,2.581s-2.899-1.173-2.899-2.581C99.098,38.581,100.402,37.416,101.997,37.416"/>
	<path fill="#4D44A5" d="M107.682,43.585h7.607v2.369c0.668-1.702,2.236-2.527,4.153-2.527c1.114,0,2.05,0.29,2.765,0.851
		c1.306,1.037,1.522,2.313,1.522,4.018v6.518c0,1.969,0.182,2.607,2.257,2.607v0.162h-8.755v-0.162c1.089,0,1.173-0.901,1.173-2.607
		v-7.101c0-2.691-0.509-3.197-1.278-3.197c-0.158,0-0.957,0.081-1.383,0.931c-0.293,0.587-0.454,1.013-0.454,3.168v6.199
		c0,1.706,0.08,2.607,1.173,2.607v0.162h-8.78v-0.162c2.075,0,2.262-0.638,2.262-2.607v-8.436c0-1.968-0.187-2.606-2.262-2.606
		V43.585z"/>
	<path fill="#4D44A5" d="M127.301,57.583h-0.187v-6.599h0.16c0.583,3.087,3.699,6.599,6.226,6.599c1.331,0,2.051-1.012,2.051-1.999
		c0-1.594-1.464-1.989-2.981-2.525l-0.693-0.238c-1.994-0.668-4.443-1.437-4.443-4.55c0-3.542,3.248-4.843,5.535-4.843
		c1.783,0,3.007,0.8,3.968,0.8c0.45,0,0.663-0.375,0.771-0.719h0.187v4.949h-0.162c-0.213-2.049-2.529-4.898-4.655-4.898
		c-1.488,0-1.862,1.305-1.862,2.024c0,0.982,0.688,1.756,2.976,2.444l0.775,0.243c1.836,0.557,4.311,1.093,4.311,4.524
		c0,3.113-2.606,4.975-5.455,4.975c-2.232,0-4.393-1.144-5.218-1.144C128.1,56.626,127.726,56.89,127.301,57.583"/>
	<path fill="#4D44A5" d="M142.269,53.458v-9.686h-1.383v-0.187c1.757-0.077,3.143-0.693,4.337-1.518
		c0.851-0.583,2.075-1.62,2.263-3.564h0.157v5.082h2.424v0.187h-2.424v10.431c0,2.287,0.11,2.5,0.612,2.5
		c0.212,0,0.663-0.077,1.063-1.063c0.243-0.583,0.455-1.94,0.455-3.22h0.187c0,0.826-0.104,1.676-0.267,2.475
		c-0.213,1.063-0.612,2.819-3.674,2.819C142.855,57.714,142.269,56.41,142.269,53.458"/>
	<path fill="#4D44A5" d="M158.945,43.427c3.963,0,7.316,3.194,7.316,7.157c0,3.967-3.354,7.16-7.316,7.16s-7.319-3.193-7.319-7.16
		C151.626,46.622,154.982,43.427,158.945,43.427 M160.7,46.672c0-2.211-0.667-3.062-1.755-3.062c-1.064,0-1.731,0.851-1.731,3.062
		v7.824c0,2.207,0.667,3.061,1.731,3.061c1.088,0,1.755-0.854,1.755-3.061V46.672z"/>
	<path fill="#4D44A5" d="M167.389,43.585h7.612v2.369c0.667-1.702,2.235-2.527,4.152-2.527c1.119,0,2.046,0.29,2.77,0.851
		c1.3,1.037,1.514,2.313,1.514,4.018v6.518c0,1.969,0.188,2.607,2.262,2.607v0.162h-8.755v-0.162c1.094,0,1.169-0.901,1.169-2.607
		v-7.101c0-2.691-0.501-3.197-1.275-3.197c-0.157,0-0.961,0.081-1.386,0.931c-0.289,0.587-0.45,1.013-0.45,3.168v6.199
		c0,1.706,0.08,2.607,1.174,2.607v0.162h-8.786v-0.162c2.075,0,2.262-0.638,2.262-2.607v-8.436c0-1.968-0.187-2.606-2.262-2.606
		V43.585z"/>
	<path fill="#4FC3F7" d="M27.862,79.88c0,0.609-0.11,1.065-0.328,1.354c-0.217,0.298-0.561,0.584-1.035,0.861
		c-0.272,0.157-0.621,0.306-1.03,0.459c-0.418,0.145-0.869,0.273-1.362,0.384c-0.495,0.106-1.01,0.187-1.551,0.247
		c-0.545,0.059-1.082,0.093-1.61,0.093c-1.422,0-2.751-0.195-3.99-0.579c-1.239-0.383-2.321-0.962-3.232-1.741
		c-0.92-0.78-1.643-1.751-2.172-2.909c-0.536-1.167-0.8-2.513-0.8-4.05c0-1.614,0.29-3.023,0.873-4.224
		c0.579-1.206,1.35-2.202,2.303-3.002c0.955-0.797,2.049-1.389,3.28-1.785s2.495-0.592,3.798-0.592c1.87,0,3.352,0.298,4.446,0.903
		c1.09,0.6,1.639,1.379,1.639,2.351c0,0.51-0.127,0.954-0.387,1.328c-0.256,0.375-0.549,0.669-0.885,0.886
		c-0.49-0.298-1.108-0.588-1.844-0.873c-0.738-0.285-1.572-0.43-2.501-0.43c-1.652,0-2.964,0.477-3.943,1.423
		c-0.971,0.94-1.46,2.252-1.46,3.925c0,0.908,0.132,1.691,0.399,2.351c0.265,0.66,0.627,1.202,1.078,1.623
		c0.452,0.426,0.976,0.737,1.567,0.95c0.588,0.204,1.219,0.306,1.891,0.306c0.435,0,0.817-0.038,1.15-0.119
		c0.336-0.077,0.592-0.166,0.766-0.264V75.98h-3.16c-0.119-0.218-0.23-0.503-0.34-0.861c-0.106-0.353-0.162-0.724-0.162-1.12
		c0-0.711,0.162-1.222,0.49-1.537c0.323-0.315,0.745-0.473,1.256-0.473h4.991c0.592,0,1.048,0.162,1.375,0.49
		c0.324,0.324,0.49,0.783,0.49,1.371V79.88z"/>
	<path fill="#4FC3F7" d="M36.929,67.999c1.064,0,2.036,0.111,2.909,0.328c0.877,0.217,1.626,0.545,2.248,0.988
		c0.621,0.447,1.099,1.005,1.431,1.682c0.336,0.681,0.502,1.486,0.502,2.41v6.618c0,0.511-0.145,0.933-0.426,1.256
		c-0.289,0.328-0.625,0.609-1.022,0.843c-1.278,0.771-3.082,1.155-5.408,1.155c-1.039,0-1.985-0.103-2.819-0.298
		c-0.835-0.197-1.558-0.494-2.155-0.886c-0.604-0.392-1.065-0.895-1.388-1.508c-0.328-0.613-0.49-1.32-0.49-2.129
		c0-1.354,0.405-2.402,1.214-3.13c0.805-0.729,2.057-1.18,3.747-1.359l3.875-0.413v-0.208c0-0.571-0.255-0.98-0.757-1.227
		c-0.503-0.247-1.227-0.366-2.172-0.366c-0.75,0-1.474,0.077-2.18,0.234c-0.716,0.158-1.355,0.353-1.925,0.592
		c-0.256-0.179-0.473-0.451-0.648-0.813c-0.179-0.362-0.268-0.745-0.268-1.137c0-0.511,0.123-0.92,0.37-1.227
		c0.248-0.306,0.626-0.566,1.137-0.783c0.571-0.217,1.249-0.375,2.023-0.473C35.506,68.05,36.239,67.999,36.929,67.999
		 M37.163,79.612c0.336,0,0.707-0.034,1.107-0.103c0.409-0.067,0.707-0.161,0.903-0.28v-2.364l-2.125,0.179
		c-0.55,0.038-1.005,0.153-1.359,0.354c-0.358,0.195-0.532,0.489-0.532,0.885s0.15,0.711,0.456,0.958
		C35.919,79.488,36.439,79.612,37.163,79.612"/>
	<path fill="#4FC3F7" d="M53.976,67.999c0.809,0,1.601,0.115,2.384,0.34c0.775,0.23,1.448,0.567,2.018,1.023
		c0.597-0.396,1.262-0.72,1.994-0.98c0.741-0.256,1.635-0.383,2.674-0.383c0.749,0,1.482,0.102,2.206,0.298
		c0.716,0.196,1.354,0.507,1.917,0.929c0.561,0.425,1.014,0.987,1.345,1.686c0.333,0.698,0.503,1.549,0.503,2.555v9.308
		c-0.196,0.06-0.512,0.12-0.929,0.175c-0.425,0.06-0.869,0.09-1.32,0.09c-0.435,0-0.817-0.03-1.167-0.09
		c-0.34-0.055-0.63-0.175-0.869-0.353c-0.238-0.179-0.417-0.417-0.545-0.724s-0.195-0.707-0.195-1.197v-7.065
		c0-0.588-0.162-1.013-0.503-1.281c-0.332-0.269-0.784-0.4-1.354-0.4c-0.281,0-0.57,0.063-0.886,0.191
		c-0.315,0.128-0.553,0.264-0.715,0.4c0.025,0.077,0.034,0.154,0.034,0.222v0.192v9.84c-0.221,0.06-0.537,0.12-0.963,0.175
		c-0.425,0.06-0.851,0.09-1.286,0.09c-0.434,0-0.817-0.03-1.166-0.09c-0.341-0.055-0.631-0.175-0.869-0.353
		c-0.239-0.179-0.417-0.417-0.545-0.724s-0.197-0.707-0.197-1.197v-7.065c0-0.588-0.178-1.013-0.545-1.281
		c-0.365-0.269-0.8-0.4-1.311-0.4c-0.357,0-0.664,0.055-0.919,0.165c-0.256,0.103-0.478,0.209-0.648,0.307v10.373
		c-0.196,0.06-0.511,0.12-0.937,0.175c-0.417,0.06-0.86,0.09-1.311,0.09c-0.435,0-0.818-0.03-1.167-0.09
		c-0.35-0.055-0.639-0.175-0.869-0.353c-0.239-0.179-0.418-0.417-0.546-0.724c-0.135-0.307-0.195-0.707-0.195-1.197v-8.921
		c0-0.537,0.111-0.954,0.341-1.269c0.221-0.316,0.536-0.614,0.928-0.886c0.673-0.477,1.499-0.86,2.496-1.158
		C51.855,68.148,52.894,67.999,53.976,67.999"/>
	<path fill="#4FC3F7" d="M79.68,83.278c-1.158,0-2.24-0.166-3.237-0.489c-0.987-0.328-1.856-0.813-2.597-1.461
		c-0.741-0.652-1.32-1.47-1.746-2.453c-0.417-0.988-0.63-2.138-0.63-3.458c0-1.303,0.213-2.419,0.63-3.356
		c0.426-0.932,0.98-1.703,1.669-2.299c0.689-0.605,1.482-1.048,2.368-1.333c0.886-0.285,1.788-0.43,2.717-0.43
		c1.048,0,1.993,0.161,2.853,0.477c0.852,0.315,1.592,0.745,2.214,1.298c0.622,0.55,1.108,1.214,1.448,1.981
		c0.34,0.766,0.52,1.601,0.52,2.513c0,0.664-0.187,1.179-0.562,1.532c-0.375,0.354-0.895,0.579-1.567,0.681l-7.3,1.091
		c0.222,0.652,0.665,1.141,1.33,1.465c0.672,0.323,1.439,0.485,2.308,0.485c0.809,0,1.566-0.102,2.291-0.306
		c0.715-0.209,1.302-0.451,1.754-0.724c0.315,0.195,0.579,0.468,0.8,0.826c0.214,0.353,0.324,0.728,0.324,1.124
		c0,0.886-0.417,1.541-1.243,1.976c-0.63,0.337-1.337,0.562-2.13,0.682C81.111,83.219,80.37,83.278,79.68,83.278 M78.854,71.665
		c-0.468,0-0.877,0.081-1.227,0.234c-0.34,0.162-0.621,0.363-0.842,0.605c-0.214,0.247-0.376,0.524-0.486,0.827
		c-0.111,0.306-0.17,0.621-0.196,0.937l5.059-0.832c-0.059-0.395-0.282-0.787-0.656-1.179
		C80.132,71.861,79.586,71.665,78.854,71.665"/>
	<path fill="#4FC3F7" d="M97.855,64.898c0.213-0.042,0.562-0.093,1.031-0.162c0.477-0.067,0.928-0.102,1.363-0.102
		c0.451,0,0.851,0.035,1.192,0.102c0.349,0.069,0.639,0.192,0.868,0.367c0.238,0.178,0.417,0.425,0.536,0.74
		c0.119,0.316,0.18,0.733,0.18,1.243v10.928c0,1.755-0.502,3.071-1.509,3.948c-1.004,0.873-2.487,1.316-4.437,1.316
		c-1.021,0-1.848-0.162-2.478-0.477c-0.451-0.213-0.784-0.511-0.988-0.885c-0.204-0.375-0.315-0.797-0.315-1.27
		c0-0.392,0.059-0.741,0.161-1.035c0.112-0.294,0.248-0.532,0.401-0.711c0.374,0.081,0.698,0.137,0.962,0.162
		c0.264,0.034,0.554,0.047,0.869,0.047c0.775,0,1.32-0.191,1.661-0.575c0.332-0.383,0.502-0.954,0.502-1.699V64.898z"/>
	<path fill="#4FC3F7" d="M112.3,67.999c1.065,0,2.035,0.111,2.913,0.328c0.877,0.217,1.618,0.545,2.24,0.988
		c0.622,0.447,1.099,1.005,1.439,1.682c0.332,0.681,0.494,1.486,0.494,2.41v6.618c0,0.511-0.137,0.933-0.427,1.256
		c-0.28,0.328-0.622,0.609-1.021,0.843c-1.277,0.771-3.074,1.155-5.4,1.155c-1.047,0-1.984-0.103-2.827-0.298
		c-0.835-0.197-1.55-0.494-2.155-0.886c-0.596-0.392-1.063-0.895-1.388-1.508c-0.324-0.613-0.486-1.32-0.486-2.129
		c0-1.354,0.4-2.402,1.209-3.13c0.811-0.729,2.063-1.18,3.758-1.359l3.866-0.413v-0.208c0-0.571-0.247-0.98-0.75-1.227
		c-0.502-0.247-1.227-0.366-2.172-0.366c-0.749,0-1.48,0.077-2.188,0.234c-0.708,0.158-1.355,0.353-1.926,0.592
		c-0.256-0.179-0.469-0.451-0.647-0.813c-0.178-0.362-0.264-0.745-0.264-1.137c0-0.511,0.12-0.92,0.366-1.227
		c0.246-0.306,0.63-0.566,1.142-0.783c0.57-0.217,1.243-0.375,2.018-0.473C110.877,68.05,111.61,67.999,112.3,67.999
		 M112.538,79.612c0.333,0,0.699-0.034,1.108-0.103c0.399-0.067,0.697-0.161,0.902-0.28v-2.364l-2.13,0.179
		c-0.553,0.038-1.005,0.153-1.363,0.354c-0.349,0.195-0.526,0.489-0.526,0.885s0.152,0.711,0.459,0.958
		C111.287,79.488,111.806,79.612,112.538,79.612"/>
	<path fill="#4FC3F7" d="M129.344,67.999c0.809,0,1.601,0.115,2.385,0.34c0.773,0.23,1.447,0.567,2.018,1.023
		c0.597-0.396,1.26-0.72,2.001-0.98c0.732-0.256,1.627-0.383,2.666-0.383c0.75,0,1.491,0.102,2.206,0.298
		c0.715,0.196,1.354,0.507,1.916,0.929c0.563,0.425,1.014,0.987,1.346,1.686c0.342,0.698,0.502,1.549,0.502,2.555v9.308
		c-0.195,0.06-0.502,0.12-0.928,0.175c-0.426,0.06-0.86,0.09-1.311,0.09c-0.436,0-0.827-0.03-1.167-0.09
		c-0.35-0.055-0.64-0.175-0.877-0.353c-0.239-0.179-0.418-0.417-0.545-0.724c-0.128-0.307-0.196-0.707-0.196-1.197v-7.065
		c0-0.588-0.162-1.013-0.495-1.281c-0.34-0.269-0.792-0.4-1.363-0.4c-0.271,0-0.569,0.063-0.885,0.191
		c-0.314,0.128-0.554,0.264-0.707,0.4c0.018,0.077,0.025,0.154,0.025,0.222v0.192v9.84c-0.212,0.06-0.536,0.12-0.962,0.175
		c-0.417,0.06-0.853,0.09-1.286,0.09c-0.436,0-0.818-0.03-1.167-0.09c-0.341-0.055-0.63-0.175-0.869-0.353
		c-0.238-0.179-0.417-0.417-0.545-0.724c-0.127-0.307-0.195-0.707-0.195-1.197v-7.065c0-0.588-0.179-1.013-0.545-1.281
		c-0.367-0.269-0.801-0.4-1.312-0.4c-0.358,0-0.665,0.055-0.921,0.165c-0.256,0.103-0.468,0.209-0.646,0.307v10.373
		c-0.197,0.06-0.511,0.12-0.929,0.175c-0.427,0.06-0.868,0.09-1.32,0.09c-0.434,0-0.818-0.03-1.166-0.09
		c-0.341-0.055-0.631-0.175-0.869-0.353c-0.238-0.179-0.418-0.417-0.545-0.724c-0.128-0.307-0.196-0.707-0.196-1.197v-8.921
		c0-0.537,0.111-0.954,0.341-1.269c0.229-0.316,0.536-0.614,0.929-0.886c0.673-0.477,1.507-0.86,2.495-1.158
		C127.222,68.148,128.262,67.999,129.344,67.999"/>
	<path fill="#4FC3F7" d="M159.569,78.517c0,1.499-0.563,2.674-1.687,3.518c-1.115,0.847-2.776,1.269-4.956,1.269
		c-0.826,0-1.603-0.06-2.31-0.179c-0.706-0.115-1.311-0.298-1.813-0.545c-0.503-0.247-0.903-0.554-1.186-0.929
		c-0.289-0.374-0.425-0.817-0.425-1.328c0-0.477,0.094-0.873,0.29-1.201c0.196-0.324,0.434-0.592,0.715-0.809
		c0.571,0.315,1.227,0.596,1.959,0.843c0.741,0.247,1.592,0.366,2.556,0.366c0.612,0,1.081-0.085,1.404-0.264
		c0.324-0.179,0.486-0.413,0.486-0.706c0-0.282-0.111-0.494-0.35-0.657c-0.238-0.153-0.631-0.28-1.185-0.383l-0.885-0.174
		c-1.712-0.337-2.99-0.865-3.824-1.58c-0.843-0.72-1.26-1.746-1.26-3.092c0-0.724,0.161-1.388,0.476-1.976
		c0.315-0.592,0.758-1.082,1.328-1.478c0.572-0.396,1.253-0.698,2.054-0.915c0.801-0.218,1.679-0.324,2.649-0.324
		c0.723,0,1.404,0.051,2.052,0.162c0.638,0.106,1.192,0.268,1.669,0.486c0.469,0.216,0.843,0.498,1.115,0.843
		c0.282,0.345,0.418,0.754,0.418,1.226c0,0.452-0.085,0.843-0.255,1.167c-0.163,0.324-0.375,0.596-0.631,0.809
		c-0.162-0.094-0.392-0.196-0.707-0.307c-0.314-0.111-0.663-0.209-1.038-0.298c-0.375-0.085-0.75-0.162-1.133-0.221
		c-0.384-0.06-0.741-0.085-1.057-0.085c-0.647,0-1.149,0.072-1.499,0.221c-0.357,0.145-0.536,0.379-0.536,0.69
		c0,0.221,0.102,0.396,0.298,0.537c0.195,0.136,0.57,0.264,1.124,0.383l0.911,0.204c1.892,0.435,3.236,1.031,4.037,1.789
		C159.169,76.337,159.569,77.316,159.569,78.517"/>
	<path fill="#4FC3F7" d="M180.486,71.636c0.376-0.158,0.725-0.272,1.057-0.341c0.324-0.068,0.647-0.102,0.988-0.102
		c0.469,0,0.853,0.068,1.15,0.204c0.298,0.136,0.527,0.333,0.697,0.579c0.163,0.248,0.281,0.537,0.333,0.869
		c0.067,0.336,0.094,0.699,0.094,1.094c0,1.597-0.408,3.113-1.21,4.553l2.274,2.185c-0.043,0.745-0.298,1.358-0.766,1.831
		c-0.479,0.473-1.04,0.711-1.688,0.711c-0.792,0-1.559-0.375-2.309-1.124l-0.561-0.533c-0.726,0.533-1.56,0.95-2.496,1.257
		c-0.938,0.306-1.977,0.46-3.117,0.46c-1.158,0-2.181-0.154-3.066-0.46c-0.894-0.307-1.636-0.724-2.249-1.257
		c-0.612-0.532-1.072-1.154-1.388-1.878c-0.314-0.715-0.478-1.499-0.478-2.346c0-0.728,0.11-1.38,0.324-1.951
		c0.222-0.57,0.502-1.073,0.86-1.507c0.358-0.43,0.75-0.801,1.183-1.107c0.436-0.303,0.878-0.558,1.329-0.754
		c-0.391-0.473-0.672-0.975-0.843-1.508c-0.17-0.527-0.247-1.03-0.247-1.507c0-0.609,0.128-1.18,0.383-1.712
		c0.256-0.532,0.622-0.996,1.09-1.388c0.47-0.392,1.049-0.699,1.73-0.916c0.681-0.217,1.448-0.328,2.315-0.328
		c1.244,0,2.121,0.222,2.633,0.664c0.511,0.443,0.766,1.014,0.766,1.704c0,0.332-0.059,0.656-0.187,0.971
		c-0.129,0.315-0.324,0.605-0.579,0.86c-0.213-0.102-0.469-0.178-0.75-0.238c-0.289-0.06-0.587-0.086-0.903-0.086
		c-0.511,0-0.937,0.077-1.269,0.235c-0.341,0.157-0.503,0.443-0.503,0.856c0,0.298,0.129,0.596,0.385,0.903
		c0.255,0.306,0.57,0.647,0.945,1.017l3.78,3.667c0.094-0.434,0.171-0.945,0.221-1.542
		C180.461,73.083,180.486,72.402,180.486,71.636 M172.481,77.01c0,0.689,0.229,1.269,0.698,1.729
		c0.46,0.464,1.149,0.698,2.052,0.698c0.393,0,0.811-0.059,1.244-0.161c0.435-0.111,0.844-0.294,1.235-0.55l-3.781-3.811
		c-0.47,0.217-0.826,0.511-1.073,0.886S172.481,76.58,172.481,77.01"/>
	<path fill="#4FC3F7" d="M16.808,108.199c-0.213,0.055-0.554,0.114-1.018,0.175c-0.464,0.055-0.92,0.089-1.375,0.089
		c-0.452,0-0.853-0.034-1.193-0.102c-0.349-0.068-0.638-0.196-0.873-0.375c-0.234-0.175-0.413-0.417-0.532-0.737
		c-0.12-0.314-0.179-0.728-0.179-1.239V92.094c0-0.414,0.115-0.733,0.34-0.963c0.226-0.221,0.537-0.409,0.929-0.545
		c0.673-0.238,1.435-0.409,2.291-0.52c0.86-0.106,1.72-0.162,2.589-0.162c2.717,0,4.796,0.584,6.235,1.746
		c1.434,1.163,2.155,2.739,2.155,4.728c0,0.962-0.154,1.839-0.46,2.614c-0.307,0.78-0.758,1.448-1.359,2.01
		c-0.6,0.562-1.358,0.997-2.274,1.299c-0.915,0.306-1.976,0.456-3.177,0.456h-2.099V108.199z M18.345,98.711
		c0.831,0,1.465-0.191,1.904-0.575c0.447-0.387,0.668-0.971,0.668-1.758c0-0.75-0.234-1.325-0.694-1.729
		c-0.464-0.401-1.137-0.605-2.027-0.605c-0.314,0-0.575,0.004-0.783,0.017c-0.205,0.008-0.418,0.034-0.63,0.072v4.578H18.345z"/>
	<path fill="#4FC3F7" d="M42.84,101.134c0,1.223-0.187,2.313-0.562,3.267c-0.375,0.954-0.899,1.755-1.579,2.406
		c-0.682,0.651-1.491,1.146-2.437,1.478c-0.946,0.332-2.002,0.503-3.163,0.503c-1.164,0-2.215-0.18-3.165-0.532
		c-0.941-0.354-1.754-0.865-2.436-1.521c-0.681-0.665-1.205-1.466-1.58-2.41c-0.374-0.945-0.558-2.011-0.558-3.19
		c0-1.162,0.184-2.219,0.558-3.164c0.375-0.945,0.899-1.746,1.58-2.405c0.682-0.66,1.495-1.167,2.436-1.521
		c0.95-0.358,2.001-0.533,3.165-0.533c1.161,0,2.217,0.184,3.163,0.55c0.946,0.362,1.755,0.873,2.437,1.533
		c0.68,0.66,1.204,1.465,1.579,2.41C42.653,98.95,42.84,99.993,42.84,101.134 M32.496,101.134c0,1.206,0.23,2.125,0.698,2.764
		c0.46,0.64,1.108,0.963,1.934,0.963c0.826,0,1.465-0.328,1.908-0.979c0.442-0.647,0.665-1.567,0.665-2.747
		c0-1.179-0.231-2.091-0.683-2.729c-0.45-0.643-1.089-0.963-1.919-0.963c-0.827,0-1.47,0.32-1.921,0.963
		C32.726,99.043,32.496,99.955,32.496,101.134"/>
	<path fill="#4FC3F7" d="M52.887,108.786c-1.168,0-2.241-0.161-3.237-0.485c-0.997-0.327-1.858-0.817-2.598-1.465
		c-0.742-0.646-1.321-1.465-1.746-2.453c-0.426-0.983-0.635-2.138-0.635-3.458c0-1.293,0.209-2.418,0.635-3.351
		c0.425-0.933,0.979-1.703,1.669-2.304c0.69-0.6,1.482-1.048,2.368-1.329c0.886-0.289,1.789-0.43,2.717-0.43
		c1.039,0,1.993,0.158,2.845,0.473c0.86,0.316,1.601,0.749,2.223,1.303c0.621,0.55,1.098,1.21,1.447,1.976
		c0.341,0.767,0.511,1.605,0.511,2.512c0,0.669-0.187,1.184-0.554,1.533c-0.374,0.357-0.902,0.584-1.566,0.682l-7.3,1.094
		c0.214,0.652,0.656,1.138,1.329,1.461c0.673,0.324,1.44,0.49,2.3,0.49c0.808,0,1.576-0.107,2.291-0.311
		c0.724-0.205,1.311-0.447,1.763-0.725c0.315,0.196,0.579,0.473,0.793,0.826c0.221,0.357,0.331,0.732,0.331,1.124
		c0,0.886-0.417,1.546-1.244,1.98c-0.629,0.337-1.336,0.559-2.128,0.678C54.316,108.728,53.576,108.786,52.887,108.786
		 M52.06,97.178c-0.477,0-0.886,0.077-1.227,0.23c-0.349,0.162-0.63,0.366-0.843,0.609c-0.221,0.246-0.383,0.524-0.486,0.826
		c-0.11,0.306-0.178,0.617-0.195,0.932l5.051-0.826c-0.06-0.396-0.273-0.792-0.648-1.184C53.336,97.374,52.784,97.178,52.06,97.178"
		/>
	<path fill="#4FC3F7" d="M66.539,103.378c0,0.512,0.162,0.878,0.485,1.095c0.324,0.218,0.784,0.324,1.371,0.324
		c0.299,0,0.605-0.022,0.92-0.072c0.315-0.052,0.587-0.111,0.826-0.192c0.179,0.218,0.324,0.456,0.46,0.725
		c0.128,0.268,0.188,0.583,0.188,0.958c0,0.749-0.281,1.362-0.844,1.83c-0.561,0.478-1.55,0.712-2.964,0.712
		c-1.737,0-3.074-0.396-4.011-1.18c-0.929-0.792-1.397-2.069-1.397-3.841V91.088c0.213-0.06,0.529-0.124,0.929-0.192
		s0.834-0.106,1.286-0.106c0.868,0,1.542,0.153,2.026,0.46c0.477,0.306,0.725,0.954,0.725,1.933v1.896h3.867
		c0.118,0.216,0.23,0.485,0.34,0.813c0.111,0.323,0.162,0.681,0.162,1.077c0,0.69-0.153,1.188-0.46,1.491
		c-0.307,0.306-0.715,0.455-1.226,0.455h-2.683V103.378z"/>
	<path fill="#4FC3F7" d="M78.351,108.284c-0.196,0.06-0.502,0.119-0.928,0.179c-0.426,0.06-0.861,0.085-1.312,0.085
		c-0.434,0-0.826-0.025-1.166-0.085c-0.35-0.06-0.639-0.179-0.878-0.357c-0.23-0.175-0.417-0.417-0.545-0.724
		c-0.128-0.303-0.188-0.702-0.188-1.192v-8.866c0-0.452,0.077-0.844,0.248-1.167c0.17-0.324,0.408-0.613,0.724-0.869
		c0.315-0.26,0.707-0.494,1.166-0.698c0.461-0.205,0.963-0.388,1.491-0.545c0.536-0.158,1.081-0.281,1.653-0.367
		c0.579-0.094,1.149-0.136,1.719-0.136c0.946,0,1.696,0.183,2.241,0.545c0.553,0.366,0.826,0.963,0.826,1.789
		c0,0.276-0.034,0.545-0.11,0.813c-0.086,0.268-0.18,0.507-0.299,0.72c-0.417,0-0.834,0.025-1.269,0.063
		c-0.435,0.039-0.86,0.099-1.269,0.175c-0.417,0.081-0.809,0.162-1.167,0.256c-0.366,0.085-0.681,0.187-0.937,0.307V108.284z"/>
	<path fill="#4FC3F7" d="M88.189,104.652c-0.214-0.494-0.443-1.043-0.691-1.657c-0.246-0.609-0.502-1.312-0.766-2.095
		c-0.272-0.793-0.545-1.691-0.834-2.706c-0.281-1.017-0.58-2.184-0.895-3.504c0.273-0.272,0.639-0.515,1.107-0.724
		c0.46-0.204,0.971-0.307,1.517-0.307c0.69,0,1.26,0.141,1.72,0.427c0.451,0.289,0.783,0.826,1.005,1.609l2.333,8.125h0.12
		c0.23-0.664,0.459-1.397,0.689-2.185c0.231-0.788,0.452-1.597,0.665-2.441c0.213-0.834,0.418-1.669,0.605-2.507
		c0.187-0.839,0.349-1.662,0.485-2.466c0.715-0.375,1.49-0.563,2.335-0.563c0.689,0,1.259,0.145,1.719,0.444
		c0.452,0.294,0.673,0.809,0.673,1.533c0,0.536-0.068,1.149-0.204,1.848c-0.136,0.698-0.316,1.443-0.545,2.231
		c-0.23,0.788-0.494,1.603-0.801,2.437c-0.306,0.839-0.622,1.66-0.954,2.47c-0.341,0.809-0.681,1.566-1.039,2.291
		c-0.349,0.716-0.698,1.363-1.03,1.933c-0.554,0.963-1.065,1.755-1.542,2.364c-0.469,0.609-0.92,1.086-1.354,1.435
		c-0.435,0.341-0.869,0.579-1.304,0.707c-0.434,0.128-0.885,0.192-1.354,0.192c-0.834,0-1.498-0.247-2.01-0.737
		c-0.51-0.494-0.817-1.133-0.92-1.925c0.63-0.49,1.261-1.039,1.892-1.635c0.63-0.605,1.2-1.219,1.711-1.849
		c-0.332-0.102-0.689-0.331-1.073-0.694C89.066,106.342,88.64,105.652,88.189,104.652"/>
	<path fill="#4FC3F7" d="M113.603,101.193c-0.868-0.293-1.659-0.596-2.366-0.898c-0.707-0.307-1.321-0.677-1.831-1.111
		c-0.512-0.429-0.912-0.949-1.194-1.55c-0.289-0.6-0.433-1.333-0.433-2.202c0-1.673,0.646-3.014,1.941-4.019
		c1.286-1.006,3.091-1.508,5.417-1.508c0.852,0,1.636,0.06,2.367,0.179c0.724,0.119,1.354,0.302,1.874,0.545
		c0.52,0.247,0.928,0.562,1.226,0.946c0.3,0.383,0.443,0.834,0.443,1.345c0,0.511-0.119,0.954-0.357,1.316s-0.521,0.677-0.852,0.933
		c-0.435-0.282-1.014-0.52-1.746-0.724c-0.731-0.209-1.524-0.311-2.394-0.311c-0.885,0-1.533,0.123-1.95,0.371
		c-0.417,0.246-0.622,0.553-0.622,0.927c0,0.299,0.128,0.537,0.383,0.725c0.256,0.187,0.64,0.357,1.159,0.519l1.559,0.503
		c1.856,0.587,3.278,1.341,4.275,2.257c0.988,0.915,1.491,2.163,1.491,3.738c0,1.674-0.664,3.027-1.978,4.063
		c-1.319,1.031-3.262,1.55-5.824,1.55c-0.903,0-1.746-0.076-2.521-0.221c-0.784-0.149-1.465-0.366-2.045-0.652
		c-0.579-0.285-1.029-0.638-1.354-1.06c-0.331-0.426-0.493-0.911-0.493-1.465c0-0.57,0.17-1.057,0.502-1.465
		c0.341-0.4,0.697-0.711,1.099-0.929c0.545,0.435,1.227,0.81,2.019,1.124c0.801,0.315,1.67,0.47,2.615,0.47
		c0.971,0,1.644-0.146,2.043-0.439c0.393-0.294,0.588-0.643,0.588-1.035c0-0.392-0.152-0.694-0.469-0.903
		c-0.323-0.203-0.766-0.408-1.337-0.604L113.603,101.193z"/>
	<path fill="#4FC3F7" d="M129.521,108.284c-0.212,0.038-0.537,0.094-0.954,0.162c-0.425,0.067-0.851,0.102-1.286,0.102
		c-0.434,0-0.826-0.025-1.167-0.085c-0.348-0.06-0.638-0.179-0.877-0.357c-0.229-0.175-0.417-0.417-0.545-0.724
		c-0.129-0.303-0.188-0.702-0.188-1.192V89.053c0.214-0.043,0.538-0.094,0.955-0.166c0.426-0.069,0.852-0.103,1.284-0.103
		c0.436,0,0.826,0.03,1.168,0.09c0.35,0.059,0.639,0.179,0.877,0.353c0.23,0.175,0.417,0.422,0.546,0.724
		c0.128,0.302,0.187,0.703,0.187,1.197V108.284z"/>
	<path fill="#4FC3F7" d="M138.592,93.511c1.064,0,2.036,0.107,2.913,0.328c0.878,0.213,1.627,0.545,2.249,0.988
		c0.622,0.443,1.098,1.005,1.431,1.687c0.332,0.677,0.502,1.482,0.502,2.401v6.622c0,0.511-0.144,0.933-0.425,1.257
		c-0.29,0.323-0.631,0.604-1.023,0.843c-1.276,0.767-3.083,1.15-5.407,1.15c-1.039,0-1.984-0.099-2.819-0.298
		c-0.843-0.196-1.559-0.49-2.155-0.887c-0.604-0.392-1.064-0.895-1.387-1.507c-0.333-0.609-0.495-1.32-0.495-2.125
		c0-1.358,0.409-2.402,1.218-3.131c0.8-0.732,2.052-1.184,3.747-1.362l3.875-0.409V98.86c0-0.57-0.255-0.979-0.757-1.226
		c-0.502-0.247-1.227-0.371-2.172-0.371c-0.749,0-1.475,0.077-2.189,0.238c-0.707,0.158-1.346,0.354-1.916,0.588
		c-0.256-0.179-0.477-0.447-0.647-0.809c-0.178-0.366-0.273-0.745-0.273-1.141c0-0.511,0.128-0.92,0.375-1.226
		c0.247-0.303,0.622-0.562,1.134-0.78c0.57-0.217,1.252-0.375,2.026-0.473C137.17,93.562,137.902,93.511,138.592,93.511
		 M138.831,105.124c0.333,0,0.706-0.034,1.106-0.102c0.409-0.068,0.707-0.162,0.903-0.281v-2.367l-2.129,0.178
		c-0.546,0.043-1.005,0.158-1.355,0.358c-0.356,0.195-0.536,0.489-0.536,0.886c0,0.391,0.154,0.711,0.46,0.958
		C137.588,105.001,138.099,105.124,138.831,105.124"/>
	<path fill="#4FC3F7" d="M155.644,93.511c0.81,0,1.601,0.115,2.376,0.341c0.783,0.226,1.457,0.566,2.026,1.017
		c0.588-0.391,1.252-0.715,1.993-0.975c0.741-0.255,1.627-0.383,2.674-0.383c0.75,0,1.483,0.098,2.198,0.294
		c0.724,0.196,1.363,0.511,1.924,0.933c0.563,0.421,1.006,0.983,1.347,1.682c0.332,0.698,0.503,1.55,0.503,2.554v9.31
		c-0.205,0.06-0.512,0.119-0.938,0.179c-0.416,0.06-0.86,0.085-1.311,0.085c-0.436,0-0.827-0.025-1.167-0.085
		c-0.342-0.06-0.64-0.179-0.869-0.357c-0.238-0.175-0.417-0.417-0.555-0.724c-0.127-0.303-0.187-0.704-0.187-1.192v-7.061
		c0-0.596-0.17-1.022-0.502-1.285c-0.333-0.269-0.793-0.401-1.363-0.401c-0.272,0-0.57,0.059-0.885,0.192
		c-0.316,0.127-0.546,0.259-0.707,0.396c0.016,0.081,0.033,0.153,0.033,0.221v0.196v9.837c-0.222,0.06-0.545,0.119-0.962,0.179
		c-0.427,0.06-0.853,0.085-1.286,0.085c-0.435,0-0.826-0.025-1.167-0.085c-0.35-0.06-0.64-0.179-0.869-0.357
		c-0.238-0.175-0.425-0.417-0.554-0.724c-0.128-0.303-0.188-0.704-0.188-1.192v-7.061c0-0.596-0.187-1.022-0.545-1.285
		c-0.366-0.269-0.809-0.401-1.32-0.401c-0.349,0-0.655,0.051-0.911,0.161c-0.256,0.112-0.477,0.214-0.655,0.307v10.374
		c-0.196,0.06-0.503,0.119-0.929,0.179s-0.859,0.085-1.311,0.085c-0.435,0-0.827-0.025-1.167-0.085
		c-0.35-0.06-0.64-0.179-0.878-0.357c-0.23-0.175-0.417-0.417-0.545-0.724c-0.128-0.303-0.188-0.704-0.188-1.192v-8.926
		c0-0.532,0.111-0.954,0.342-1.269c0.222-0.315,0.535-0.613,0.928-0.886c0.673-0.476,1.5-0.86,2.496-1.154
		S154.562,93.511,155.644,93.511"/>
	<path fill="#4FC3F7" d="M185.87,104.03c0,1.494-0.563,2.67-1.688,3.513c-1.123,0.852-2.774,1.273-4.965,1.273
		c-0.825,0-1.592-0.06-2.3-0.179c-0.706-0.115-1.319-0.303-1.822-0.545c-0.502-0.247-0.894-0.559-1.175-0.933
		c-0.29-0.375-0.435-0.817-0.435-1.329c0-0.473,0.102-0.869,0.298-1.196c0.196-0.323,0.434-0.592,0.707-0.813
		c0.571,0.315,1.227,0.596,1.968,0.843s1.593,0.371,2.555,0.371c0.613,0,1.081-0.089,1.405-0.269
		c0.324-0.179,0.485-0.408,0.485-0.707c0-0.277-0.118-0.493-0.357-0.651c-0.229-0.157-0.63-0.286-1.176-0.383l-0.885-0.175
		c-1.721-0.337-2.99-0.864-3.833-1.584c-0.835-0.715-1.252-1.746-1.252-3.088c0-0.728,0.152-1.388,0.469-1.98
		c0.314-0.587,0.758-1.081,1.336-1.473c0.571-0.396,1.253-0.698,2.053-0.92c0.793-0.213,1.679-0.323,2.641-0.323
		c0.731,0,1.414,0.055,2.054,0.161c0.638,0.111,1.2,0.273,1.668,0.49c0.477,0.217,0.852,0.499,1.124,0.839
		c0.273,0.349,0.418,0.758,0.418,1.226c0,0.456-0.085,0.844-0.255,1.167c-0.171,0.328-0.375,0.596-0.631,0.813
		c-0.161-0.097-0.4-0.2-0.715-0.31c-0.316-0.107-0.656-0.205-1.03-0.294c-0.375-0.09-0.759-0.166-1.143-0.222
		c-0.383-0.059-0.731-0.089-1.048-0.089c-0.646,0-1.149,0.077-1.507,0.221c-0.349,0.15-0.528,0.384-0.528,0.694
		c0,0.218,0.095,0.396,0.29,0.533c0.204,0.136,0.57,0.263,1.124,0.383l0.92,0.209c1.892,0.43,3.236,1.026,4.028,1.784
		C185.47,101.846,185.87,102.829,185.87,104.03"/>
</g>
<g>
	<path fill="#4FC3F7" d="M106.252,137.448H91.256c-5.014,0-9.117-4.103-9.117-9.116c0-5.016,4.103-9.117,9.117-9.117h14.996
		c5.015,0,9.116,4.102,9.116,9.117C115.368,133.346,111.267,137.448,106.252,137.448"/>
	<path fill="#FFFFFF" d="M87.75,130.445c-0.049,0.014-0.125,0.026-0.229,0.039c-0.104,0.014-0.207,0.021-0.309,0.021
		c-0.102,0-0.192-0.008-0.269-0.023c-0.078-0.015-0.143-0.043-0.196-0.083c-0.054-0.04-0.093-0.095-0.12-0.166
		c-0.027-0.071-0.04-0.164-0.04-0.279v-3.131c0-0.093,0.025-0.165,0.076-0.216c0.051-0.051,0.121-0.091,0.21-0.123
		c0.15-0.053,0.322-0.091,0.515-0.116c0.193-0.023,0.387-0.037,0.582-0.037c0.611,0,1.079,0.132,1.402,0.394
		c0.324,0.261,0.485,0.616,0.485,1.063c0,0.218-0.034,0.413-0.103,0.588c-0.069,0.176-0.17,0.326-0.305,0.452
		c-0.136,0.127-0.306,0.225-0.512,0.293s-0.445,0.104-0.715,0.104H87.75V130.445z M88.096,128.312c0.186,0,0.329-0.043,0.429-0.129
		c0.099-0.087,0.149-0.219,0.149-0.396c0-0.168-0.052-0.298-0.156-0.389s-0.256-0.136-0.455-0.136c-0.071,0-0.13,0.001-0.176,0.003
		c-0.047,0.003-0.095,0.008-0.144,0.017v1.03H88.096z"/>
	<path fill="#FFFFFF" d="M91.36,130.465c-0.044,0.014-0.114,0.026-0.209,0.04c-0.096,0.014-0.194,0.021-0.296,0.021
		c-0.098,0-0.185-0.007-0.263-0.021c-0.077-0.014-0.143-0.04-0.196-0.079c-0.053-0.04-0.094-0.095-0.123-0.163
		s-0.043-0.158-0.043-0.27v-1.994c0-0.102,0.019-0.189,0.056-0.263c0.038-0.073,0.092-0.138,0.163-0.196
		c0.071-0.057,0.159-0.109,0.263-0.155c0.104-0.047,0.216-0.088,0.336-0.123c0.119-0.035,0.243-0.063,0.372-0.083
		c0.128-0.021,0.256-0.03,0.385-0.03c0.213,0,0.382,0.041,0.505,0.123c0.124,0.082,0.187,0.216,0.187,0.401
		c0,0.063-0.01,0.123-0.027,0.184c-0.018,0.06-0.04,0.114-0.067,0.163c-0.093,0-0.188,0.004-0.286,0.013
		c-0.097,0.009-0.192,0.022-0.285,0.04c-0.093,0.018-0.18,0.037-0.263,0.057c-0.082,0.02-0.151,0.043-0.209,0.069V130.465z"/>
	<path fill="#FFFFFF" d="M96.178,128.856c0,0.274-0.042,0.52-0.126,0.734s-0.202,0.396-0.356,0.542
		c-0.152,0.146-0.335,0.257-0.548,0.332c-0.213,0.076-0.45,0.113-0.711,0.113c-0.262,0-0.499-0.039-0.711-0.119
		c-0.213-0.08-0.395-0.194-0.549-0.343c-0.153-0.148-0.271-0.329-0.355-0.542c-0.084-0.212-0.127-0.451-0.127-0.718
		c0-0.262,0.043-0.499,0.127-0.711c0.084-0.213,0.202-0.394,0.355-0.542c0.154-0.148,0.336-0.263,0.549-0.343
		c0.212-0.079,0.449-0.119,0.711-0.119c0.261,0,0.498,0.041,0.711,0.123c0.213,0.082,0.396,0.197,0.548,0.346
		c0.154,0.148,0.272,0.329,0.356,0.542S96.178,128.6,96.178,128.856 M93.852,128.856c0,0.271,0.052,0.478,0.156,0.621
		c0.104,0.145,0.249,0.217,0.436,0.217c0.185,0,0.328-0.073,0.428-0.22c0.1-0.146,0.15-0.352,0.15-0.618
		c0-0.266-0.051-0.471-0.153-0.614c-0.102-0.145-0.246-0.216-0.432-0.216s-0.33,0.071-0.432,0.216
		C93.903,128.386,93.852,128.591,93.852,128.856"/>
	<path fill="#FFFFFF" d="M96.511,130.924c0.098-0.062,0.168-0.147,0.213-0.256c0.044-0.108,0.066-0.229,0.066-0.362v-3.018
		c0.049-0.009,0.121-0.021,0.216-0.037c0.096-0.015,0.192-0.022,0.29-0.022c0.097,0,0.185,0.007,0.262,0.02
		c0.078,0.013,0.143,0.04,0.196,0.08c0.053,0.039,0.094,0.094,0.123,0.162c0.029,0.069,0.044,0.159,0.044,0.27v2.651
		c0,0.188-0.023,0.355-0.067,0.506c-0.045,0.151-0.108,0.281-0.189,0.389c-0.083,0.108-0.182,0.192-0.3,0.253
		c-0.117,0.06-0.249,0.09-0.395,0.09c-0.195,0-0.348-0.06-0.459-0.176c-0.11-0.117-0.168-0.266-0.172-0.442L96.511,130.924z
		 M96.737,126.344c0-0.168,0.057-0.311,0.169-0.425c0.114-0.116,0.263-0.173,0.449-0.173c0.187,0,0.336,0.057,0.449,0.173
		c0.113,0.114,0.169,0.257,0.169,0.425s-0.056,0.311-0.169,0.426c-0.113,0.115-0.262,0.173-0.449,0.173
		c-0.186,0-0.335-0.058-0.449-0.173C96.794,126.654,96.737,126.512,96.737,126.344"/>
	<path fill="#FFFFFF" d="M100.347,130.578c-0.263,0-0.504-0.036-0.729-0.11c-0.224-0.072-0.418-0.182-0.584-0.328
		c-0.167-0.146-0.298-0.33-0.393-0.552c-0.095-0.222-0.143-0.481-0.143-0.778c0-0.292,0.048-0.544,0.143-0.754
		c0.095-0.211,0.221-0.383,0.375-0.519c0.156-0.135,0.333-0.234,0.532-0.299c0.2-0.064,0.404-0.097,0.612-0.097
		c0.235,0,0.449,0.035,0.641,0.106c0.193,0.07,0.359,0.169,0.499,0.293c0.141,0.124,0.248,0.272,0.325,0.444
		c0.078,0.174,0.117,0.361,0.117,0.565c0,0.151-0.042,0.266-0.126,0.346c-0.085,0.08-0.202,0.131-0.353,0.152l-1.643,0.247
		c0.049,0.146,0.149,0.255,0.3,0.328c0.15,0.073,0.323,0.109,0.518,0.109c0.182,0,0.353-0.022,0.515-0.068
		c0.162-0.047,0.293-0.102,0.396-0.163c0.07,0.044,0.131,0.105,0.18,0.186c0.049,0.079,0.073,0.164,0.073,0.252
		c0,0.2-0.094,0.349-0.279,0.445c-0.142,0.076-0.301,0.127-0.479,0.154C100.667,130.564,100.501,130.578,100.347,130.578
		 M100.16,127.966c-0.105,0-0.198,0.018-0.276,0.054c-0.078,0.035-0.141,0.08-0.189,0.136c-0.049,0.056-0.086,0.117-0.11,0.186
		c-0.025,0.07-0.039,0.139-0.043,0.21l1.138-0.186c-0.015-0.09-0.063-0.178-0.147-0.267S100.324,127.966,100.16,127.966"/>
	<path fill="#FFFFFF" d="M104.107,128.032c-0.11,0-0.216,0.019-0.315,0.054s-0.187,0.088-0.259,0.156
		c-0.073,0.068-0.132,0.153-0.177,0.256c-0.044,0.102-0.065,0.222-0.065,0.358c0,0.275,0.078,0.481,0.235,0.618
		c0.157,0.138,0.349,0.206,0.575,0.206c0.133,0,0.248-0.015,0.346-0.046s0.184-0.065,0.259-0.1c0.089,0.062,0.155,0.13,0.199,0.202
		c0.045,0.073,0.066,0.16,0.066,0.263c0,0.182-0.086,0.322-0.26,0.422c-0.172,0.1-0.411,0.149-0.717,0.149
		c-0.279,0-0.532-0.041-0.758-0.123c-0.227-0.081-0.42-0.196-0.582-0.346c-0.161-0.147-0.286-0.327-0.375-0.535
		c-0.09-0.208-0.134-0.438-0.134-0.69c0-0.293,0.049-0.549,0.144-0.769c0.095-0.219,0.225-0.399,0.389-0.542
		c0.164-0.141,0.354-0.248,0.568-0.318s0.442-0.106,0.681-0.106c0.32,0,0.565,0.058,0.738,0.173s0.259,0.264,0.259,0.445
		c0,0.085-0.02,0.163-0.059,0.236c-0.04,0.073-0.087,0.137-0.141,0.188c-0.074-0.035-0.166-0.069-0.271-0.102
		C104.347,128.049,104.231,128.032,104.107,128.032"/>
	<path fill="#FFFFFF" d="M106.667,129.361c0,0.115,0.037,0.197,0.11,0.246c0.072,0.05,0.176,0.073,0.308,0.073
		c0.067,0,0.136-0.006,0.207-0.016c0.071-0.011,0.132-0.026,0.186-0.044c0.04,0.049,0.074,0.103,0.104,0.163
		c0.028,0.06,0.043,0.132,0.043,0.216c0,0.169-0.063,0.306-0.189,0.412c-0.126,0.105-0.35,0.16-0.668,0.16
		c-0.391,0-0.69-0.09-0.9-0.267s-0.316-0.465-0.316-0.864v-2.845c0.049-0.013,0.119-0.028,0.21-0.043
		c0.091-0.016,0.188-0.023,0.289-0.023c0.195,0,0.348,0.034,0.455,0.103c0.109,0.069,0.163,0.214,0.163,0.436v0.426h0.871
		c0.026,0.049,0.052,0.109,0.076,0.183c0.023,0.073,0.036,0.154,0.036,0.243c0,0.155-0.034,0.267-0.104,0.335
		c-0.068,0.069-0.16,0.104-0.274,0.104h-0.605V129.361z"/>
	<path fill="#FFFFFF" d="M110.921,129.508c0,0.337-0.126,0.601-0.378,0.791c-0.253,0.19-0.625,0.286-1.117,0.286
		c-0.187,0-0.359-0.014-0.519-0.04s-0.296-0.067-0.408-0.123c-0.114-0.056-0.202-0.125-0.267-0.209
		c-0.064-0.085-0.097-0.184-0.097-0.3c0-0.105,0.022-0.195,0.067-0.269c0.044-0.073,0.097-0.134,0.159-0.184
		c0.129,0.071,0.275,0.135,0.441,0.19c0.166,0.055,0.358,0.083,0.575,0.083c0.137,0,0.243-0.021,0.316-0.061
		c0.072-0.039,0.109-0.093,0.109-0.159c0-0.063-0.026-0.11-0.08-0.146c-0.054-0.035-0.142-0.063-0.266-0.086l-0.2-0.04
		c-0.385-0.075-0.672-0.194-0.86-0.355c-0.188-0.162-0.282-0.394-0.282-0.694c0-0.164,0.035-0.313,0.106-0.446
		c0.07-0.133,0.17-0.243,0.299-0.332c0.128-0.089,0.282-0.157,0.463-0.206c0.179-0.049,0.377-0.072,0.594-0.072
		c0.164,0,0.318,0.012,0.462,0.036c0.145,0.024,0.27,0.062,0.376,0.109c0.106,0.049,0.19,0.112,0.253,0.189
		c0.062,0.077,0.093,0.17,0.093,0.275c0,0.103-0.019,0.19-0.057,0.264c-0.037,0.072-0.085,0.134-0.144,0.183
		c-0.034-0.022-0.089-0.046-0.159-0.07c-0.07-0.023-0.148-0.047-0.232-0.066c-0.084-0.021-0.169-0.036-0.256-0.05
		c-0.086-0.014-0.165-0.02-0.236-0.02c-0.146,0-0.259,0.016-0.339,0.049c-0.08,0.034-0.12,0.086-0.12,0.157
		c0,0.048,0.023,0.088,0.067,0.119s0.129,0.06,0.253,0.087l0.206,0.047c0.425,0.097,0.728,0.231,0.907,0.401
		C110.832,129.018,110.921,129.237,110.921,129.508"/>
</g>
<g>
	<path fill="#4FC3F7" d="M67.787,137.448H52.792c-5.014,0-9.117-4.103-9.117-9.116c0-5.016,4.103-9.117,9.117-9.117h14.995
		c5.015,0,9.117,4.102,9.117,9.117C76.904,133.346,72.802,137.448,67.787,137.448"/>
	<path fill="#FFFFFF" d="M52.125,126.49c0.076-0.045,0.19-0.087,0.342-0.127c0.154-0.039,0.308-0.059,0.462-0.059
		c0.222,0,0.418,0.032,0.589,0.096c0.17,0.064,0.28,0.165,0.329,0.303c0.08,0.229,0.166,0.499,0.259,0.805
		c0.093,0.305,0.186,0.621,0.279,0.947c0.093,0.325,0.184,0.646,0.272,0.963c0.089,0.317,0.167,0.597,0.233,0.842
		c-0.053,0.062-0.133,0.111-0.239,0.149c-0.106,0.037-0.233,0.057-0.379,0.057c-0.106,0-0.196-0.01-0.269-0.027
		c-0.073-0.018-0.133-0.044-0.18-0.08c-0.046-0.035-0.084-0.082-0.112-0.139c-0.029-0.058-0.055-0.124-0.077-0.2l-0.119-0.459
		h-1.204c-0.035,0.133-0.071,0.271-0.106,0.412c-0.035,0.143-0.071,0.28-0.106,0.413c-0.062,0.021-0.128,0.041-0.196,0.056
		c-0.069,0.017-0.152,0.024-0.25,0.024c-0.226,0-0.393-0.039-0.501-0.117c-0.109-0.078-0.164-0.185-0.164-0.322
		c0-0.062,0.01-0.124,0.027-0.186c0.018-0.063,0.038-0.136,0.06-0.22c0.031-0.12,0.075-0.269,0.13-0.445
		c0.055-0.178,0.116-0.369,0.182-0.575c0.067-0.206,0.138-0.418,0.213-0.635c0.075-0.217,0.147-0.422,0.213-0.615
		c0.067-0.191,0.127-0.364,0.183-0.515C52.051,126.685,52.094,126.569,52.125,126.49 M52.923,127.348
		c-0.062,0.188-0.132,0.395-0.209,0.622c-0.078,0.228-0.148,0.46-0.21,0.694h0.824c-0.062-0.239-0.125-0.474-0.189-0.701
		c-0.065-0.229-0.123-0.434-0.176-0.615H52.923z"/>
	<path fill="#FFFFFF" d="M55.362,126.072c0.045-0.014,0.116-0.028,0.213-0.044c0.098-0.016,0.197-0.023,0.3-0.023
		c0.097,0,0.185,0.007,0.262,0.021c0.077,0.013,0.143,0.04,0.196,0.08c0.053,0.039,0.093,0.094,0.12,0.162
		c0.027,0.068,0.04,0.159,0.04,0.269v0.652c0.11-0.044,0.216-0.075,0.316-0.094c0.099-0.018,0.209-0.026,0.328-0.026
		c0.213,0,0.415,0.038,0.605,0.113c0.191,0.075,0.36,0.185,0.506,0.329s0.261,0.322,0.345,0.535s0.126,0.458,0.126,0.737
		c0,0.288-0.043,0.54-0.129,0.754c-0.087,0.216-0.207,0.395-0.362,0.535c-0.156,0.143-0.345,0.25-0.569,0.323
		c-0.224,0.073-0.47,0.109-0.741,0.109c-0.292,0-0.541-0.034-0.745-0.103c-0.203-0.069-0.376-0.154-0.518-0.256
		c-0.195-0.137-0.293-0.315-0.293-0.532V126.072z M56.918,129.614c0.204,0,0.362-0.07,0.475-0.209c0.113-0.14,0.17-0.347,0.17-0.622
		c0-0.279-0.058-0.487-0.173-0.625c-0.115-0.137-0.27-0.206-0.465-0.206c-0.089,0-0.166,0.009-0.23,0.027
		c-0.064,0.017-0.134,0.044-0.209,0.08v1.449c0.049,0.03,0.107,0.056,0.176,0.075C56.731,129.604,56.816,129.614,56.918,129.614"/>
	<path fill="#FFFFFF" d="M62.615,128.784c0,0.273-0.043,0.519-0.127,0.733s-0.202,0.396-0.355,0.542
		c-0.153,0.146-0.336,0.257-0.549,0.332c-0.213,0.076-0.449,0.113-0.711,0.113c-0.261,0-0.499-0.039-0.711-0.119
		c-0.213-0.08-0.395-0.194-0.548-0.343c-0.153-0.148-0.272-0.329-0.356-0.542c-0.084-0.212-0.126-0.451-0.126-0.717
		c0-0.263,0.042-0.499,0.126-0.712s0.203-0.394,0.356-0.542c0.153-0.148,0.335-0.263,0.548-0.343
		c0.212-0.079,0.45-0.119,0.711-0.119c0.262,0,0.498,0.041,0.711,0.123s0.396,0.197,0.549,0.346c0.153,0.148,0.271,0.33,0.355,0.542
		C62.572,128.292,62.615,128.526,62.615,128.784 M60.288,128.784c0,0.27,0.052,0.477,0.156,0.62c0.104,0.145,0.25,0.217,0.436,0.217
		s0.329-0.073,0.429-0.22c0.099-0.146,0.149-0.352,0.149-0.617c0-0.267-0.051-0.472-0.153-0.615
		c-0.102-0.145-0.246-0.216-0.432-0.216s-0.33,0.071-0.432,0.216C60.338,128.313,60.288,128.518,60.288,128.784"/>
	<path fill="#FFFFFF" d="M63.166,127.215c0.044-0.014,0.114-0.027,0.209-0.04c0.096-0.013,0.194-0.02,0.296-0.02
		c0.098,0,0.185,0.007,0.263,0.02c0.077,0.013,0.143,0.04,0.196,0.08c0.053,0.04,0.094,0.094,0.123,0.163
		c0.029,0.067,0.043,0.158,0.043,0.269v1.43c0,0.182,0.045,0.311,0.133,0.389c0.089,0.077,0.217,0.116,0.385,0.116
		c0.102,0,0.185-0.01,0.25-0.027c0.064-0.017,0.114-0.035,0.149-0.053v-2.326c0.044-0.014,0.115-0.027,0.21-0.04
		c0.095-0.013,0.194-0.02,0.296-0.02c0.097,0,0.185,0.007,0.262,0.02c0.078,0.013,0.143,0.04,0.196,0.08
		c0.053,0.04,0.094,0.094,0.123,0.163c0.029,0.067,0.044,0.158,0.044,0.269v2.021c0,0.222-0.094,0.388-0.28,0.499
		c-0.155,0.098-0.34,0.172-0.555,0.223c-0.215,0.05-0.448,0.076-0.701,0.076c-0.239,0-0.46-0.026-0.662-0.08
		c-0.201-0.053-0.375-0.135-0.521-0.246c-0.147-0.11-0.259-0.253-0.339-0.428s-0.12-0.387-0.12-0.635V127.215z"/>
	<path fill="#FFFFFF" d="M68.164,129.289c0,0.114,0.037,0.196,0.11,0.245c0.073,0.05,0.176,0.073,0.309,0.073
		c0.066,0,0.135-0.006,0.206-0.016c0.071-0.011,0.133-0.026,0.186-0.044c0.04,0.049,0.074,0.103,0.103,0.163
		c0.029,0.06,0.043,0.132,0.043,0.216c0,0.169-0.063,0.306-0.189,0.412c-0.126,0.105-0.349,0.16-0.668,0.16
		c-0.39,0-0.69-0.09-0.901-0.267c-0.21-0.177-0.316-0.465-0.316-0.864v-2.845c0.049-0.013,0.119-0.026,0.21-0.043
		c0.091-0.016,0.187-0.023,0.289-0.023c0.195,0,0.347,0.034,0.455,0.103c0.109,0.069,0.163,0.214,0.163,0.436v0.426h0.871
		c0.026,0.049,0.052,0.109,0.076,0.183c0.025,0.073,0.037,0.154,0.037,0.243c0,0.155-0.035,0.267-0.103,0.335
		c-0.069,0.069-0.161,0.104-0.276,0.104h-0.605V129.289z"/>
</g>
<g>
	<path fill="#4FC3F7" d="M144.716,137.448h-14.995c-5.014,0-9.117-4.103-9.117-9.116c0-5.016,4.104-9.117,9.117-9.117h14.995
		c5.015,0,9.117,4.102,9.117,9.117C153.833,133.346,149.73,137.448,144.716,137.448"/>
	<path fill="#FFFFFF" d="M127.856,127.248c-0.341,0-0.603,0.104-0.784,0.312c-0.182,0.209-0.272,0.504-0.272,0.886
		c0,0.385,0.101,0.682,0.302,0.89c0.202,0.208,0.474,0.313,0.815,0.313c0.181,0,0.335-0.024,0.461-0.073
		c0.126-0.048,0.248-0.104,0.363-0.166c0.074,0.062,0.134,0.137,0.176,0.223s0.063,0.188,0.063,0.303
		c0,0.182-0.101,0.335-0.302,0.461c-0.202,0.127-0.509,0.19-0.921,0.19c-0.296,0-0.576-0.043-0.837-0.127
		c-0.262-0.084-0.49-0.213-0.685-0.388c-0.195-0.177-0.35-0.397-0.463-0.665c-0.112-0.269-0.169-0.588-0.169-0.96
		c0-0.347,0.054-0.651,0.162-0.915c0.109-0.264,0.258-0.486,0.446-0.667c0.188-0.183,0.409-0.319,0.661-0.412
		c0.253-0.094,0.522-0.141,0.811-0.141c0.408,0,0.724,0.066,0.947,0.199c0.224,0.134,0.335,0.305,0.335,0.513
		c0,0.114-0.028,0.215-0.086,0.299c-0.057,0.084-0.124,0.15-0.199,0.198c-0.115-0.074-0.239-0.139-0.369-0.191
		C128.181,127.275,128.029,127.248,127.856,127.248"/>
	<path fill="#FFFFFF" d="M132.769,128.85c0,0.275-0.042,0.521-0.126,0.734c-0.084,0.215-0.202,0.396-0.355,0.542
		c-0.152,0.146-0.336,0.257-0.549,0.332c-0.213,0.076-0.449,0.114-0.711,0.114s-0.499-0.04-0.711-0.12
		c-0.213-0.08-0.395-0.194-0.549-0.343c-0.152-0.148-0.271-0.329-0.355-0.541c-0.084-0.213-0.126-0.452-0.126-0.719
		c0-0.261,0.042-0.498,0.126-0.711s0.203-0.393,0.355-0.542c0.154-0.147,0.336-0.263,0.549-0.342c0.212-0.08,0.449-0.12,0.711-0.12
		s0.498,0.041,0.711,0.123s0.396,0.197,0.549,0.346c0.153,0.148,0.271,0.329,0.355,0.542S132.769,128.593,132.769,128.85
		 M130.442,128.85c0,0.271,0.052,0.478,0.156,0.622c0.104,0.145,0.25,0.216,0.436,0.216c0.187,0,0.328-0.073,0.43-0.22
		c0.099-0.146,0.148-0.352,0.148-0.618c0-0.266-0.051-0.471-0.153-0.614c-0.102-0.145-0.245-0.216-0.432-0.216
		c-0.186,0-0.33,0.071-0.432,0.216C130.493,128.379,130.442,128.584,130.442,128.85"/>
	<path fill="#FFFFFF" d="M135.368,128.418c0-0.137-0.039-0.238-0.116-0.302c-0.078-0.065-0.184-0.097-0.316-0.097
		c-0.089,0-0.176,0.011-0.262,0.032c-0.087,0.023-0.161,0.057-0.223,0.101v2.307c-0.046,0.013-0.114,0.026-0.209,0.04
		c-0.097,0.013-0.194,0.02-0.297,0.02c-0.098,0-0.185-0.007-0.263-0.02c-0.078-0.014-0.143-0.04-0.196-0.08
		s-0.094-0.094-0.123-0.163c-0.028-0.069-0.043-0.158-0.043-0.27v-1.993c0-0.12,0.026-0.218,0.076-0.293
		c0.051-0.075,0.121-0.145,0.21-0.206c0.15-0.106,0.34-0.193,0.568-0.259c0.228-0.067,0.481-0.101,0.761-0.101
		c0.501,0,0.886,0.11,1.157,0.329c0.27,0.22,0.405,0.524,0.405,0.914v2.081c-0.044,0.013-0.114,0.026-0.21,0.04
		c-0.096,0.013-0.193,0.02-0.295,0.02c-0.099,0-0.186-0.007-0.264-0.02c-0.077-0.014-0.143-0.04-0.196-0.08
		c-0.053-0.04-0.094-0.094-0.122-0.163s-0.043-0.158-0.043-0.27V128.418z"/>
	<path fill="#FFFFFF" d="M138.326,129.355c0,0.114,0.036,0.197,0.109,0.245c0.073,0.05,0.176,0.073,0.309,0.073
		c0.066,0,0.136-0.006,0.207-0.016c0.069-0.011,0.132-0.026,0.186-0.044c0.04,0.049,0.074,0.103,0.103,0.163
		c0.028,0.06,0.043,0.132,0.043,0.216c0,0.169-0.063,0.306-0.188,0.412c-0.127,0.106-0.35,0.16-0.668,0.16
		c-0.391,0-0.691-0.09-0.901-0.267s-0.315-0.465-0.315-0.864v-2.845c0.049-0.013,0.119-0.026,0.21-0.043
		c0.09-0.016,0.186-0.023,0.289-0.023c0.194,0,0.347,0.034,0.455,0.104c0.108,0.068,0.163,0.214,0.163,0.435v0.427h0.87
		c0.026,0.048,0.052,0.108,0.076,0.182c0.024,0.074,0.036,0.154,0.036,0.243c0,0.155-0.034,0.267-0.103,0.336
		c-0.068,0.068-0.16,0.103-0.276,0.103h-0.604V129.355z"/>
	<path fill="#FFFFFF" d="M141.184,127.135c0.239,0,0.457,0.025,0.654,0.073c0.197,0.049,0.365,0.123,0.506,0.223
		c0.14,0.1,0.246,0.227,0.321,0.38c0.075,0.152,0.113,0.333,0.113,0.541v1.488c0,0.115-0.032,0.21-0.096,0.282
		c-0.064,0.074-0.141,0.137-0.229,0.19c-0.288,0.173-0.693,0.26-1.217,0.26c-0.235,0-0.446-0.023-0.634-0.067
		c-0.189-0.044-0.351-0.11-0.486-0.199c-0.135-0.089-0.239-0.201-0.312-0.339c-0.073-0.137-0.11-0.297-0.11-0.479
		c0-0.305,0.091-0.54,0.271-0.704c0.184-0.164,0.465-0.266,0.846-0.306l0.871-0.094v-0.047c0-0.128-0.058-0.22-0.17-0.275
		s-0.276-0.083-0.488-0.083c-0.169,0-0.333,0.018-0.492,0.054c-0.16,0.035-0.304,0.079-0.432,0.132
		c-0.059-0.04-0.107-0.101-0.147-0.182c-0.039-0.083-0.059-0.168-0.059-0.257c0-0.115,0.027-0.207,0.083-0.275
		c0.055-0.069,0.14-0.127,0.256-0.176c0.128-0.049,0.28-0.084,0.455-0.107C140.863,127.146,141.028,127.135,141.184,127.135
		 M141.236,129.747c0.076,0,0.159-0.008,0.25-0.023c0.09-0.016,0.158-0.036,0.202-0.063v-0.532l-0.479,0.04
		c-0.124,0.009-0.226,0.036-0.306,0.079c-0.08,0.045-0.12,0.112-0.12,0.2c0,0.089,0.035,0.161,0.104,0.216
		C140.956,129.72,141.072,129.747,141.236,129.747"/>
	<path fill="#FFFFFF" d="M145.291,128.026c-0.111,0-0.216,0.018-0.316,0.053c-0.1,0.035-0.186,0.088-0.259,0.156
		s-0.132,0.153-0.176,0.256c-0.044,0.102-0.066,0.222-0.066,0.358c0,0.275,0.078,0.481,0.235,0.618
		c0.158,0.138,0.349,0.206,0.576,0.206c0.132,0,0.248-0.015,0.345-0.046c0.098-0.031,0.185-0.064,0.259-0.1
		c0.089,0.062,0.155,0.13,0.199,0.202c0.045,0.073,0.067,0.161,0.067,0.263c0,0.182-0.086,0.322-0.261,0.423
		c-0.172,0.099-0.41,0.148-0.717,0.148c-0.278,0-0.531-0.041-0.758-0.122c-0.226-0.082-0.42-0.197-0.582-0.347
		c-0.161-0.147-0.286-0.326-0.375-0.535c-0.089-0.208-0.133-0.438-0.133-0.69c0-0.292,0.048-0.548,0.143-0.769
		c0.096-0.219,0.226-0.399,0.39-0.541s0.353-0.248,0.567-0.319c0.215-0.07,0.443-0.106,0.682-0.106c0.319,0,0.564,0.059,0.737,0.173
		c0.174,0.115,0.26,0.265,0.26,0.446c0,0.084-0.021,0.162-0.06,0.235c-0.04,0.073-0.087,0.137-0.14,0.189
		c-0.076-0.036-0.166-0.069-0.272-0.103S145.415,128.026,145.291,128.026"/>
	<path fill="#FFFFFF" d="M147.85,129.355c0,0.114,0.037,0.197,0.11,0.245c0.073,0.05,0.176,0.073,0.309,0.073
		c0.066,0,0.136-0.006,0.206-0.016c0.07-0.011,0.133-0.026,0.187-0.044c0.04,0.049,0.074,0.103,0.103,0.163
		c0.028,0.06,0.043,0.132,0.043,0.216c0,0.169-0.063,0.306-0.188,0.412s-0.35,0.16-0.668,0.16c-0.391,0-0.691-0.09-0.901-0.267
		s-0.315-0.465-0.315-0.864v-2.845c0.049-0.013,0.119-0.026,0.21-0.043c0.091-0.016,0.187-0.023,0.289-0.023
		c0.194,0,0.347,0.034,0.455,0.104c0.108,0.068,0.162,0.214,0.162,0.435v0.427h0.871c0.026,0.048,0.053,0.108,0.076,0.182
		c0.024,0.074,0.036,0.154,0.036,0.243c0,0.155-0.034,0.267-0.103,0.336c-0.068,0.068-0.16,0.103-0.275,0.103h-0.605V129.355z"/>
</g>
</svg>
